<?xml version="1.0" standalone="no"?>
<!DOCTYPE svg PUBLIC "-//W3C//DTD SVG 20010904//EN"
 "http://www.w3.org/TR/2001/REC-SVG-20010904/DTD/svg10.dtd">
<svg version="1.0" xmlns="http://www.w3.org/2000/svg"
 width="6251.000000pt" height="1648.000000pt" viewBox="0 0 6251.000000 1648.000000"
 preserveAspectRatio="xMidYMid meet">

<g transform="translate(0.000000,1648.000000) scale(0.100000,-0.100000)"
fill="#000000" stroke="none">
<path d="M36430 15546 l0 -933 1790 -699 c984 -384 1790 -701 1790 -704 0 -3
-806 -304 -1790 -670 l-1790 -665 0 -957 c0 -527 3 -958 8 -958 4 0 1389 560
3077 1244 l3070 1243 3 776 c2 614 0 776 -10 780 -7 2 -1343 540 -2968 1195
-1625 654 -3006 1210 -3067 1235 l-113 45 0 -932z"/>
<path d="M39518 9132 l-1018 -415 0 -674 0 -673 -417 -2 -418 -3 -3 -752 -2
-753 420 0 420 0 0 -1787 c0 -984 5 -1881 10 -1994 24 -527 132 -906 354
-1234 88 -131 283 -323 420 -414 227 -150 500 -257 814 -316 535 -102 1236
-75 1777 67 l85 22 0 792 0 793 -58 -24 c-161 -66 -362 -98 -612 -98 -170 0
-205 2 -275 21 -280 77 -427 265 -465 597 -6 58 -10 719 -10 1833 l0 1742 690
0 690 0 0 755 0 755 -690 0 -690 0 -2 1088 -3 1089 -1017 -415z"/>
<path d="M3040 7514 c-243 -20 -313 -28 -430 -45 -1188 -176 -1996 -801 -2288
-1769 -44 -144 -102 -453 -102 -539 l0 -31 968 0 968 0 12 85 c51 351 264 634
572 759 81 33 190 61 299 77 120 17 411 6 523 -20 315 -72 530 -256 642 -547
68 -176 96 -383 96 -721 l0 -193 -572 0 c-726 0 -1003 -15 -1398 -76 -1397
-214 -2181 -876 -2315 -1954 -18 -146 -21 -560 -4 -708 89 -823 574 -1419
1368 -1682 337 -112 666 -157 1066 -147 345 9 589 55 873 163 379 146 727 404
956 711 l61 82 3 -404 2 -405 990 0 990 0 0 2478 c0 1598 -4 2525 -10 2611
-42 549 -203 991 -493 1351 -408 507 -1052 808 -1937 905 -136 15 -728 29
-840 19z m1260 -4628 c0 -373 -9 -508 -40 -630 -93 -363 -369 -636 -774 -765
-295 -94 -690 -101 -945 -15 -261 88 -433 261 -500 503 -43 157 -49 377 -14
551 85 426 480 655 1205 699 73 4 343 9 601 10 l467 1 0 -354z"/>
<path d="M10635 7514 c-22 -2 -92 -9 -155 -15 -606 -57 -1203 -277 -1665 -614
-774 -565 -1236 -1431 -1361 -2555 -22 -195 -30 -792 -15 -1017 33 -469 119
-893 256 -1263 68 -184 230 -504 333 -660 450 -677 1108 -1116 1947 -1298 315
-69 506 -87 910 -87 430 1 646 24 990 109 1107 273 1871 1046 2134 2158 54
226 97 536 77 544 -6 2 -420 3 -921 2 l-910 -3 -23 -115 c-98 -488 -355 -860
-722 -1045 -175 -88 -353 -128 -570 -128 -522 1 -893 200 -1137 612 -215 363
-313 863 -313 1606 0 651 77 1084 260 1453 152 307 342 503 613 632 191 92
372 126 626 117 183 -6 291 -27 433 -86 330 -138 567 -474 670 -953 l23 -108
968 0 967 0 0 38 c0 20 -9 100 -21 177 -99 683 -359 1234 -777 1653 -462 461
-1082 735 -1872 828 -127 14 -650 27 -745 18z"/>
<path d="M18135 7513 c-280 -22 -488 -55 -698 -109 -1468 -378 -2378 -1564
-2497 -3254 -13 -189 -13 -662 0 -848 94 -1310 613 -2264 1535 -2822 400 -241
859 -389 1415 -457 208 -25 775 -25 980 0 803 100 1403 370 1880 847 215 215
379 447 520 735 106 215 167 381 225 610 62 242 114 592 91 601 -6 2 -420 3
-920 2 l-910 -3 -22 -105 c-46 -220 -105 -387 -190 -535 -265 -460 -704 -690
-1230 -645 -189 16 -315 45 -454 105 -494 212 -769 720 -852 1570 -17 177 -17
889 0 1055 65 631 235 1057 539 1353 181 176 420 289 692 328 134 19 394 7
512 -24 322 -84 533 -259 691 -572 59 -117 129 -323 154 -453 l18 -92 968 0
968 0 0 35 c0 53 -28 246 -56 390 -269 1353 -1269 2175 -2779 2285 -128 9
-483 11 -580 3z"/>
<path d="M25605 7514 c-22 -2 -89 -9 -150 -14 -933 -91 -1749 -533 -2280
-1235 -430 -568 -676 -1279 -734 -2123 -14 -196 -14 -665 -1 -864 69 -1019
396 -1807 991 -2383 544 -526 1263 -820 2168 -886 205 -15 665 -6 851 15 708
84 1279 306 1750 682 114 91 309 287 402 404 264 332 455 744 542 1170 13 63
20 118 17 123 -4 4 -424 6 -934 5 l-928 -3 -30 -90 c-152 -451 -482 -728 -982
-822 -128 -24 -494 -24 -622 -1 -493 92 -806 354 -1001 836 -87 216 -148 505
-180 849 l-7 73 2344 2 2344 3 3 425 c5 767 -24 1121 -129 1547 -232 947 -814
1648 -1669 2011 -305 129 -632 212 -1020 258 -127 15 -648 28 -745 18z m540
-1429 c265 -40 479 -141 643 -303 237 -234 363 -578 407 -1104 l7 -78 -1347 0
-1347 0 6 48 c66 459 245 878 475 1110 171 173 389 285 635 326 112 19 397 20
521 1z"/>
<path d="M34317 7510 c-760 -73 -1366 -414 -1769 -995 -31 -44 -71 -107 -89
-140 l-34 -60 -3 528 -2 527 -1010 0 -1010 0 0 -3610 0 -3610 1010 0 1010 0 2
2313 c3 2198 4 2317 22 2407 85 441 313 749 669 903 177 76 345 107 580 107
356 0 588 -78 768 -259 118 -119 191 -253 238 -443 52 -207 51 -127 51 -2665
l0 -2363 1015 0 1015 0 0 2453 c0 1509 -4 2519 -10 2627 -35 601 -169 1073
-407 1435 -310 470 -754 737 -1378 831 -118 18 -538 27 -668 14z"/>
<path d="M58885 7509 c-1044 -83 -1917 -571 -2468 -1379 -350 -513 -551 -1108
-629 -1860 -18 -172 -18 -960 0 -1130 61 -583 183 -1026 397 -1450 145 -285
299 -501 520 -729 245 -251 488 -428 810 -586 547 -270 1133 -387 1864 -372
653 13 1158 129 1652 378 274 138 505 304 714 514 292 291 496 617 635 1011
45 129 107 367 117 452 l6 52 -933 -2 -932 -3 -32 -95 c-153 -449 -482 -724
-979 -817 -132 -24 -494 -25 -627 0 -441 81 -736 301 -934 695 -115 231 -192
518 -231 872 -8 74 -15 147 -15 162 l0 28 2343 2 2342 3 -1 560 c-1 576 -7
721 -45 995 -85 610 -294 1141 -616 1562 -97 126 -287 325 -413 430 -424 357
-1021 602 -1655 683 -271 34 -640 44 -890 24z m600 -1424 c548 -83 877 -424
1000 -1038 21 -110 31 -183 50 -384 l6 -63 -1346 0 c-1327 0 -1345 0 -1345 19
0 11 9 69 21 128 152 798 514 1240 1093 1337 112 19 397 19 521 1z"/>
<path d="M54935 7460 c-567 -33 -1024 -216 -1383 -555 -180 -169 -352 -406
-491 -675 l-80 -155 -3 645 -3 645 -1007 3 -1008 2 0 -3610 0 -3610 1010 0
1010 0 0 1930 c0 1292 4 1963 11 2028 97 894 707 1318 1952 1359 l197 6 0 999
0 998 -37 -2 c-21 0 -96 -4 -168 -8z"/>
<path d="M43143 4748 c3 -2883 -1 -2661 63 -2989 120 -620 418 -1096 875
-1404 105 -71 334 -183 458 -224 257 -85 467 -120 772 -128 566 -15 1033 104
1434 365 281 183 562 492 714 787 l20 40 1 -522 0 -523 1010 0 1010 0 0 3610
0 3610 -1007 -2 -1008 -3 -5 -2340 c-5 -2185 -7 -2346 -23 -2428 -58 -288
-165 -505 -331 -672 -212 -214 -496 -328 -851 -342 -571 -23 -913 201 -1041
682 -61 230 -58 82 -61 2708 l-4 2397 -1015 0 -1014 0 3 -2622z"/>
</g>
</svg>
