<?xml version="1.0" standalone="no"?>
<!DOCTYPE svg PUBLIC "-//W3C//DTD SVG 20010904//EN"
 "http://www.w3.org/TR/2001/REC-SVG-20010904/DTD/svg10.dtd">
<svg version="1.0" xmlns="http://www.w3.org/2000/svg"
 width="348.000000pt" height="335.000000pt" viewBox="0 0 348.000000 335.000000"
 preserveAspectRatio="xMidYMid meet">

<g transform="translate(0.000000,335.000000) scale(0.100000,-0.100000)"
fill="#000000" stroke="none">
<path d="M1076 2528 c4 -7 56 -90 116 -184 l109 -172 52 20 c29 11 54 21 56
23 2 2 -9 25 -24 50 -15 26 -25 49 -22 51 3 3 49 -17 102 -44 l97 -48 -86 -33
c-95 -36 -131 -69 -121 -109 6 -25 341 -555 353 -560 4 -1 6 26 5 60 -1 45
-19 121 -62 262 -34 109 -61 204 -61 210 0 6 34 28 76 49 l75 37 72 -37 c63
-33 72 -41 69 -63 -1 -14 -29 -114 -63 -222 -49 -163 -59 -208 -57 -255 l3
-58 21 35 c12 19 92 145 178 279 199 312 199 309 38 372 l-84 33 94 47 c51 27
97 48 101 48 5 1 -4 -21 -20 -48 -15 -28 -25 -52 -23 -55 3 -2 28 -13 56 -24
l50 -20 116 181 c64 100 115 183 113 185 -2 2 -138 -43 -302 -101 -164 -57
-314 -110 -334 -116 -33 -11 -56 -4 -361 104 -179 63 -329 115 -333 115 -3 0
-3 -6 1 -12z"/>
<path d="M620 1247 c-23 -12 -25 -18 -28 -98 -2 -63 1 -89 11 -97 8 -7 81 -12
208 -12 l194 -2 0 29 0 28 -177 3 -178 2 0 45 0 45 177 2 177 3 0 30 0 30
-179 2 c-130 2 -187 -1 -205 -10z"/>
<path d="M1060 1166 c0 -73 4 -98 16 -110 13 -13 45 -16 193 -16 220 0 213 -4
209 126 l-3 89 -35 0 -35 0 -3 -77 -3 -78 -134 0 -135 0 0 80 0 80 -35 0 -35
0 0 -94z"/>
<path d="M1534 1247 c-2 -7 -3 -58 -2 -112 l3 -99 30 0 c26 0 30 4 33 32 l3
32 159 0 c187 0 193 2 188 83 -4 73 -14 77 -231 77 -138 0 -179 -3 -183 -13z
m354 -64 c3 -23 3 -23 -142 -23 l-146 0 0 25 0 26 143 -3 c139 -3 142 -4 145
-25z"/>
<path d="M2005 1250 c-3 -6 -5 -55 -3 -109 l3 -99 33 -4 c39 -5 42 -3 42 34
l0 28 115 0 116 0 17 -29 c13 -23 25 -30 54 -33 42 -4 45 1 22 37 -15 22 -15
26 1 41 11 12 15 30 13 67 -3 43 -7 54 -28 64 -31 16 -376 18 -385 3z m353
-67 c3 -23 3 -23 -137 -23 l-141 0 0 25 0 26 138 -3 c134 -3 137 -4 140 -25z"/>
<path d="M2520 1253 c-32 -12 -40 -37 -40 -127 l0 -91 32 1 c29 1 33 4 36 32
l3 32 140 0 139 0 0 -33 c0 -32 1 -33 35 -29 l36 4 -3 107 -3 106 -180 2 c-99
1 -187 -1 -195 -4z m310 -68 l0 -25 -140 0 c-129 0 -140 1 -140 18 0 10 3 22
7 25 3 4 66 7 140 7 l133 0 0 -25z"/>
</g>
</svg>
