<?xml version="1.0" encoding="UTF-8"?>
<svg version="1.1" xmlns="http://www.w3.org/2000/svg" width="463" height="222">
<path d="M0 0 C0.95970703 -0.02449219 1.91941406 -0.04898438 2.90820312 -0.07421875 C12.30881208 -0.11271954 18.59651734 3.0925276 25.48828125 9.375 C29.24165248 13.79276108 30.1875 18.70900257 30.1875 24.375 C25.2375 24.375 20.2875 24.375 15.1875 24.375 C14.5275 23.055 13.8675 21.735 13.1875 20.375 C11.86357028 19.36258315 10.53150833 18.36060611 9.1875 17.375 C9.1875 16.715 9.1875 16.055 9.1875 15.375 C6.17971479 14.37240493 3.64929353 14.07185358 0.5 13.8125 C-0.49386719 13.72871094 -1.48773438 13.64492187 -2.51171875 13.55859375 C-3.27097656 13.49800781 -4.03023437 13.43742187 -4.8125 13.375 C-4.8125 14.035 -4.8125 14.695 -4.8125 15.375 C-5.369375 15.41625 -5.92625 15.4575 -6.5 15.5 C-9.99404456 16.82207091 -11.92371457 19.26484449 -13.8125 22.375 C-15.14634327 26.0003176 -15.8125 29.49633885 -15.8125 33.375 C-16.07353516 34.29539062 -16.07353516 34.29539062 -16.33984375 35.234375 C-16.91664428 37.84666171 -16.68891851 39.97413261 -16.375 42.625 C-16.27316406 43.51703125 -16.17132813 44.4090625 -16.06640625 45.328125 C-15.94072266 46.34132813 -15.94072266 46.34132813 -15.8125 47.375 C-15.1525 47.375 -14.4925 47.375 -13.8125 47.375 C-12.28801369 50.3576906 -10.87309933 53.193202 -9.8125 56.375 C-3.25453069 57.75562512 3.34648842 58.44037934 9.6875 56.0625 C12.40672531 54.45707479 12.40672531 54.45707479 14.1875 51.375 C14.1875 50.055 14.1875 48.735 14.1875 47.375 C13.18847656 47.32601562 12.18945312 47.27703125 11.16015625 47.2265625 C9.86980469 47.15179688 8.57945313 47.07703125 7.25 47 C5.96222656 46.93039063 4.67445312 46.86078125 3.34765625 46.7890625 C2.30480469 46.65242188 1.26195312 46.51578125 0.1875 46.375 C-1.16651611 43.66696778 -0.72671523 41.81017683 -0.4375 38.8125 C-0.30214844 37.32556641 -0.30214844 37.32556641 -0.1640625 35.80859375 C0.1875 33.375 0.1875 33.375 1.1875 32.375 C3.33308827 32.28724395 5.48154421 32.26804781 7.62890625 32.27734375 C8.93408203 32.28056641 10.23925781 32.28378906 11.58398438 32.28710938 C12.9726569 32.29546599 14.36132877 32.30393095 15.75 32.3125 C17.14257656 32.31751334 18.53515481 32.32207653 19.92773438 32.32617188 C23.3476987 32.33800566 26.76757844 32.3544912 30.1875 32.375 C30.37696765 34.59445117 30.55752544 36.81466402 30.734375 39.03515625 C30.88664551 40.88959351 30.88664551 40.88959351 31.04199219 42.78149414 C31.38304929 51.20434574 29.30775492 59.67996128 23.8125 66.1875 C21.20690073 68.35883272 19.3715628 69.31364573 16.1875 70.375 C14.65222656 71.1484375 14.65222656 71.1484375 13.0859375 71.9375 C8.72647913 73.8149476 4.84822938 73.60972072 0.1875 73.25 C-0.58078125 73.21390625 -1.3490625 73.1778125 -2.140625 73.140625 C-7.29914372 72.80725134 -11.17516059 71.65666965 -15.8125 69.375 C-15.8125 68.715 -15.8125 68.055 -15.8125 67.375 C-17.2046875 67.2821875 -17.2046875 67.2821875 -18.625 67.1875 C-21.8125 66.375 -21.8125 66.375 -23.625 64 C-24.8125 61.375 -24.8125 61.375 -25.8125 58.375 C-26.8025 58.045 -27.7925 57.715 -28.8125 57.375 C-29.8125 55 -29.8125 55 -30.8125 51.375 C-31.08449219 50.6221875 -31.35648438 49.869375 -31.63671875 49.09375 C-34.93929975 39.17106318 -34.69230574 27.06924432 -30.8125 17.2578125 C-24.2836831 4.96527443 -13.28222968 0.01762738 0 0 Z " fill="#000100" transform="translate(57.8125,72.625)"/>
<path d="M0 0 C0.9796875 0.01417969 1.959375 0.02835937 2.96875 0.04296875 C3.9484375 0.04941406 4.928125 0.05585937 5.9375 0.0625 C8.46875 0.23046875 8.46875 0.23046875 10.46875 1.23046875 C11.85868361 7.72119646 11.59522427 14.62570152 11.46875 21.23046875 C12.5825 20.73546875 13.69625 20.24046875 14.84375 19.73046875 C20.81343621 17.4971287 26.53454464 17.60977146 32.71875 18.91796875 C38.88792828 21.86234929 41.43085793 24.42909131 43.78125 30.79296875 C44.37387342 32.59584423 44.93914528 34.40808533 45.46875 36.23046875 C45.68917969 36.94074219 45.90960938 37.65101562 46.13671875 38.3828125 C46.46875 40.23046875 46.46875 40.23046875 45.46875 43.23046875 C46.45875 43.72546875 46.45875 43.72546875 47.46875 44.23046875 C47.159375 44.86984375 46.85 45.50921875 46.53125 46.16796875 C45.57367485 48.92803831 45.35200597 50.69030398 45.21875 53.54296875 C44.7146619 58.92590956 42.29487871 62.49609372 38.46875 66.23046875 C35.65625 67.60546875 35.65625 67.60546875 33.46875 68.23046875 C33.13875 68.89046875 32.80875 69.55046875 32.46875 70.23046875 C28.91215481 72.73853941 26.13877552 72.2172504 21.96875 71.54296875 C20.8446875 71.37410156 19.720625 71.20523438 18.5625 71.03125 C15.48204487 70.23390997 13.82099165 69.32327198 11.46875 67.23046875 C11.13875 68.22046875 10.80875 69.21046875 10.46875 70.23046875 C0.83456709 71.59478659 0.83456709 71.59478659 -3.53125 70.23046875 C-5.36607017 68.39564858 -4.66857904 65.45872993 -4.67651367 62.99829102 C-4.67987228 62.34786835 -4.6832309 61.69744568 -4.68669128 61.02731323 C-4.69622668 58.86714798 -4.69814569 56.70706002 -4.69921875 54.546875 C-4.70242958 53.05093859 -4.70579351 51.55500251 -4.70930481 50.05906677 C-4.71530259 46.91917187 -4.71714405 43.77930452 -4.71655273 40.6394043 C-4.71645108 36.60955193 -4.73010332 32.57987565 -4.74732494 28.55006504 C-4.75842603 25.45919478 -4.76047253 22.36836733 -4.75994301 19.27747917 C-4.76112599 17.79147675 -4.76556546 16.30547332 -4.77327538 14.81949043 C-4.78303726 12.7435474 -4.78021258 10.66798983 -4.77416992 8.59204102 C-4.77559494 7.40925064 -4.77701996 6.22646027 -4.77848816 5.00782776 C-4.45194843 1.3396316 -3.71091752 0.33787675 0 0 Z M13.46875 33.23046875 C10.42368472 38.48058131 9.67250975 43.21089249 10.46875 49.23046875 C11.61493812 53.33959213 12.81586557 55.79521246 16.46875 58.23046875 C21.99370303 58.84262051 21.99370303 58.84262051 26.84375 56.66796875 C30.48917304 51.19983419 31.42909818 44.67182849 30.46875 38.23046875 C28.80112329 34.95477343 27.49379096 32.93518441 24.46875 30.85546875 C19.87099239 29.4186695 17.07892072 30.36084587 13.46875 33.23046875 Z " fill="#010100" transform="translate(173.53125,72.76953125)"/>
<path d="M0 0 C1.44140625 1.32421875 1.44140625 1.32421875 3 3 C4.13397215 4.03399317 5.2801948 5.05469079 6.4375 6.0625 C7.01371094 6.56910156 7.58992188 7.07570313 8.18359375 7.59765625 C10.04662705 9.03599809 11.88250204 9.98545326 14 11 C14.99 11.66 15.98 12.32 17 13 C17 13.66 17 14.32 17 15 C18.32 15.33 19.64 15.66 21 16 C21 16.66 21 17.32 21 18 C21.55558594 18.25523438 22.11117188 18.51046875 22.68359375 18.7734375 C25.34056103 20.1803308 27.64471107 21.83747417 30.0625 23.625 C33.05974744 25.83667855 36.05767968 28.0410021 39.09375 30.19921875 C40.0734375 30.89660156 41.053125 31.59398438 42.0625 32.3125 C42.96097656 32.94800781 43.85945313 33.58351562 44.78515625 34.23828125 C47 36 47 36 49 39 C49 39.99 49 40.98 49 42 C49.99 42.495 49.99 42.495 51 43 C50.01 43.33 49.02 43.66 48 44 C48 44.66 48 45.32 48 46 C47.34 46 46.68 46 46 46 C46 46.66 46 47.32 46 48 C45.195625 48.28875 44.39125 48.5775 43.5625 48.875 C40.8673532 49.73262568 40.8673532 49.73262568 40 52 C39.01 52 38.02 52 37 52 C36.67 53.32 36.34 54.64 36 56 C35.34 56 34.68 56 34 56 C33.505 56.99 33.505 56.99 33 58 C31.4765625 59.2890625 31.4765625 59.2890625 29.625 60.625 C29.01914062 61.07101563 28.41328125 61.51703125 27.7890625 61.9765625 C26 63 26 63 23 63 C22.67 63.99 22.34 64.98 22 66 C19 68 19 68 17 69 C16.67 69.66 16.34 70.32 16 71 C14.515 71.495 14.515 71.495 13 72 C12.505 72.515625 12.01 73.03125 11.5 73.5625 C10 75 10 75 7 75 C6.773125 75.61875 6.54625 76.2375 6.3125 76.875 C4.62070165 79.61410209 3.00755839 80.05024472 0 81 C0 81.66 0 82.32 0 83 C-1.98 83 -3.96 83 -6 83 C-7.50112347 78.49662959 -6.43752584 75.92755479 -4.4375 71.6875 C-3.963125 70.800625 -3.48875 69.91375 -3 69 C-2.34 69 -1.68 69 -1 69 C-1 67.68 -1 66.36 -1 65 C-0.01 64.505 -0.01 64.505 1 64 C1 63.01 1 62.02 1 61 C1.66 61 2.32 61 3 61 C3 59.68 3 58.36 3 57 C3.66 57 4.32 57 5 57 C5.19532961 55.2300132 5.38098882 53.45895721 5.5625 51.6875 C5.66691406 50.70136719 5.77132813 49.71523437 5.87890625 48.69921875 C6.16602527 45.90069653 6.16602527 45.90069653 5 43 C5.66 43 6.32 43 7 43 C6.814375 42.13375 6.62875 41.2675 6.4375 40.375 C5.99332067 36.94847372 6.28045508 34.35787629 7 31 C6.01 30.67 5.02 30.34 4 30 C4.66 29.67 5.32 29.34 6 29 C4.84826645 26.53199953 3.95216435 24.95216435 2 23 C2 22.01 2 21.02 2 20 C1.67 19.01 1.34 18.02 1 17 C0.01 16.67 -0.98 16.34 -2 16 C-2.94921875 13.93359375 -2.94921875 13.93359375 -3.6875 11.4375 C-3.93886719 10.61121094 -4.19023437 9.78492187 -4.44921875 8.93359375 C-4.63097656 8.29550781 -4.81273437 7.65742187 -5 7 C-5.66 7 -6.32 7 -7 7 C-7.33 5.02 -7.66 3.04 -8 1 C-4.99825776 -0.00058075 -3.12414314 -0.31241431 0 0 Z " fill="#B9D12F" transform="translate(389,70)"/>
<path d="M0 0 C4.54845005 3.51471141 6.51230594 7.55011881 8 13 C8.36011977 15.97146478 8.35324031 18.88537373 8.29296875 21.875 C8.28872391 22.68493408 8.28447906 23.49486816 8.28010559 24.3293457 C8.26346944 26.88658561 8.22584772 29.44300304 8.1875 32 C8.1724336 33.74608227 8.15874864 35.49217705 8.14648438 37.23828125 C8.11361566 41.49249875 8.0619406 45.7461105 8 50 C5.20232513 51.39883743 3.1013728 50.93724997 0 50.6875 C-1.0725 50.60886719 -2.145 50.53023437 -3.25 50.44921875 C-6 50 -6 50 -8 48 C-8.969375 48.474375 -9.93875 48.94875 -10.9375 49.4375 C-16.66335428 51.85020876 -22.25070297 52.86346757 -28.25 50.875 C-31.93750399 49.27045735 -34.42710313 47.11866287 -37 44 C-38.81205684 38.56382947 -38.7099836 33.01784814 -36.8125 27.625 C-32.26220166 21.03491274 -26.57092387 19.4964635 -19 18 C-15.33758247 17.52918242 -11.68632225 17.2067763 -8 17 C-8.33 15.02 -8.66 13.04 -9 11 C-10.4370809 10.94577053 -11.87475462 10.90710277 -13.3125 10.875 C-14.51326172 10.84019531 -14.51326172 10.84019531 -15.73828125 10.8046875 C-18.28388576 10.84182678 -18.28388576 10.84182678 -21 13 C-21.66 14.32 -22.32 15.64 -23 17 C-27.29 17 -31.58 17 -36 17 C-36.38744724 10.60712058 -36.42357063 7.02135044 -32 2 C-24.07107396 -4.0510225 -8.92369354 -3.98718222 0 0 Z M-23 32 C-23.88658466 34.59122743 -23.88658466 34.59122743 -24 37 C-23.34 37 -22.68 37 -22 37 C-21.67 37.99 -21.34 38.98 -21 40 C-16.09049579 40.59872003 -13.23691514 39.5664032 -9.4140625 36.64453125 C-6.87471673 33.6913142 -7.06438084 30.79846946 -7 27 C-12.47781749 27 -18.78930695 28.44722774 -23 32 Z " fill="#000000" transform="translate(262,93)"/>
<path d="M0 0 C2.38695452 1.85707043 4.04542148 3.64448229 6 6 C6 6.66 6 7.32 6 8 C6.66 8.33 7.32 8.66 8 9 C11.58865148 17.57288965 11.33329257 28.5237456 7.91015625 37.10546875 C5.23854822 42.66654126 2.46936035 46.04654541 -3 49 C-6.0625 49.6875 -6.0625 49.6875 -9 50 C-9.76570313 50.18046875 -10.53140625 50.3609375 -11.3203125 50.546875 C-14.30502949 51.05157933 -16.80822309 50.88826497 -19.8125 50.5625 C-20.78832031 50.46066406 -21.76414063 50.35882813 -22.76953125 50.25390625 C-23.50558594 50.17011719 -24.24164063 50.08632812 -25 50 C-25 49.34 -25 48.68 -25 48 C-26.65 48 -28.3 48 -30 48 C-30 47.34 -30 46.68 -30 46 C-30.99 46 -31.98 46 -33 46 C-38.39482307 40.22966721 -42.32334129 32.71756141 -44 25 C-43.66015625 22.96875 -43.66015625 22.96875 -43 21 C-42.84402344 20.26523438 -42.68804687 19.53046875 -42.52734375 18.7734375 C-40.56513688 10.79466254 -36.34384824 4.06012312 -29.5546875 -0.72265625 C-21.06949449 -4.96525276 -8.3188096 -4.52690242 0 0 Z M-25 14 C-26.83186031 19.49558093 -27.22655822 26.65428922 -25.2109375 32.15234375 C-23.42022187 34.94777388 -22.17010302 35.94329899 -19 37 C-14.72798977 37.40301983 -12.47036003 37.24389038 -8.625 35.25 C-5.80486768 32.83274373 -5.5450218 32.45786055 -5 29 C-4.85867213 27.02412764 -4.77997266 25.04319351 -4.75 23.0625 C-4.72421875 22.04285156 -4.6984375 21.02320313 -4.671875 19.97265625 C-5.0495439 16.55115583 -5.95536892 14.74537318 -8 12 C-15.25732376 7.42473067 -18.89670924 8.0354204 -25 14 Z " fill="#000000" transform="translate(155,94)"/>
<path d="M0 0 C2.4375 1.8125 2.4375 1.8125 4 4 C4.25 7.25 4.25 7.25 4 10 C4.66 10.33 5.32 10.66 6 11 C5.67 23.54 5.34 36.08 5 49 C1.6888987 50.10370043 -0.24748949 49.92673641 -3.6875 49.5625 C-4.68136719 49.46066406 -5.67523438 49.35882813 -6.69921875 49.25390625 C-7.45847656 49.17011719 -8.21773438 49.08632812 -9 49 C-11.65699863 42.03970555 -11.1864298 35.11067896 -11.0625 27.75 C-11.02812419 25.22401471 -10.99797047 22.69796735 -10.97265625 20.171875 C-10.95468994 19.0590918 -10.93672363 17.94630859 -10.91821289 16.79980469 C-10.86776375 13.91605528 -10.86776375 13.91605528 -12 11 C-15.82518454 10.1749602 -18.20560221 9.67187917 -21.875 11.1875 C-24.36003367 13.30708754 -24.48242536 13.85863218 -25 17 C-25.14952957 19.4699938 -25.25559002 21.91861673 -25.31640625 24.390625 C-25.33718735 25.09523865 -25.35796844 25.79985229 -25.37937927 26.52581787 C-25.44453837 28.76711681 -25.50360248 31.00852864 -25.5625 33.25 C-25.60571726 34.77344897 -25.64933257 36.29688671 -25.69335938 37.8203125 C-25.80093115 41.54676119 -25.9002535 45.2733008 -26 49 C-30.95 49.33 -35.9 49.66 -41 50 C-41.7035546 46.48222701 -42.12577288 43.90738726 -42.12939453 40.44091797 C-42.13254669 39.57006561 -42.13569885 38.69921326 -42.13894653 37.80197144 C-42.13591019 36.41112839 -42.13591019 36.41112839 -42.1328125 34.9921875 C-42.13376923 34.02975128 -42.13472595 33.06731506 -42.13571167 32.07571411 C-42.13639068 30.04673192 -42.13455588 28.01774752 -42.13037109 25.98876953 C-42.12500721 22.87918241 -42.13033155 19.76973896 -42.13671875 16.66015625 C-42.13605815 14.68749968 -42.13477736 12.7148432 -42.1328125 10.7421875 C-42.13483673 9.81091034 -42.13686096 8.87963318 -42.13894653 7.9201355 C-42.13579437 7.05558746 -42.13264221 6.19103943 -42.12939453 5.30029297 C-42.12859894 4.54038055 -42.12780334 3.78046814 -42.12698364 2.99752808 C-42 1 -42 1 -41 -2 C-36.38 -2 -31.76 -2 -27 -2 C-26.67 -1.34 -26.34 -0.68 -26 0 C-25.01 -0.66 -24.02 -1.32 -23 -2 C-15.13561961 -4.03794575 -7.11637371 -4.06649926 0 0 Z " fill="#000000" transform="translate(318,94)"/>
<path d="M0 0 C5.28 0 10.56 0 16 0 C16 3.96 16 7.92 16 12 C22.6 12 29.2 12 36 12 C36 15.96 36 19.92 36 24 C19.63636364 25.81818182 19.63636364 25.81818182 16 24 C16.08055808 28.1258197 16.19342685 32.25012631 16.3125 36.375 C16.33505859 37.550625 16.35761719 38.72625 16.38085938 39.9375 C16.4340332 41.61972656 16.4340332 41.61972656 16.48828125 43.3359375 C16.51446533 44.37282715 16.54064941 45.4097168 16.56762695 46.47802734 C16.71031006 47.31027832 16.85299316 48.1425293 17 49 C20.24926122 51.16617415 20.5985242 51.21335669 24.1875 50.625 C25.445625 50.41875 26.70375 50.2125 28 50 C27.979375 49.030625 27.95875 48.06125 27.9375 47.0625 C28 44 28 44 29 43 C31.18639453 42.92741054 33.37500389 42.91626217 35.5625 42.9375 C37.35880859 42.95103516 37.35880859 42.95103516 39.19140625 42.96484375 C40.11824219 42.97644531 41.04507813 42.98804688 42 43 C42.70074844 46.153368 43 48.72724974 43 52 C42.34 52 41.68 52 41 52 C40.855625 53.216875 40.71125 54.43375 40.5625 55.6875 C39.60547725 59.46205126 38.33113354 60.93999488 35 62.9375 C28.25848476 66.14053132 21.13500765 66.98607739 13.94921875 64.78515625 C8.72045328 62.67898018 4.95634336 60.63503864 2.0625 55.6875 C-0.04967927 48.35699549 -0.14006706 41.16298339 -0.09765625 33.59375 C-0.0962413 32.6284436 -0.09482635 31.66313721 -0.09336853 30.6685791 C-0.0878108 27.61235335 -0.0752663 24.55620327 -0.0625 21.5 C-0.05747953 19.41666773 -0.05291758 17.3333343 -0.04882812 15.25 C-0.03785524 10.16663791 -0.02062011 5.08333174 0 0 Z " fill="#010100" transform="translate(330,79)"/>
<path d="M0 0 C1.07507813 0.00644531 2.15015625 0.01289062 3.2578125 0.01953125 C5.875 0.1875 5.875 0.1875 6.875 1.1875 C6.99896871 3.33418285 7.0530072 5.48492387 7.08032227 7.63500977 C7.09022186 8.30815216 7.10012146 8.98129456 7.11032104 9.67483521 C7.14201838 11.90948925 7.16672574 14.14416458 7.19140625 16.37890625 C7.21196869 17.92447984 7.23296496 19.47004772 7.25437927 21.01560974 C7.30967337 25.09100732 7.35905013 29.16645625 7.40722656 33.24194336 C7.45738817 37.3976704 7.51310204 41.55332252 7.56835938 45.70898438 C7.67603064 53.8684263 7.77745552 62.02793076 7.875 70.1875 C4.58980525 71.28256492 2.13836585 71.28710608 -1.3125 71.25 C-2.39917969 71.24097656 -3.48585938 71.23195313 -4.60546875 71.22265625 C-5.43691406 71.21105469 -6.26835938 71.19945312 -7.125 71.1875 C-9.27596548 67.68436263 -9.38320577 64.86843796 -9.3996582 60.79833984 C-9.40919022 59.50374847 -9.41872223 58.2091571 -9.42854309 56.87533569 C-9.42828174 55.46636935 -9.42734505 54.057403 -9.42578125 52.6484375 C-9.42966878 51.20162839 -9.43400357 49.75482041 -9.43876648 48.30801392 C-9.44621949 45.28017469 -9.44594304 42.25245211 -9.44067383 39.22460938 C-9.43486442 35.33934091 -9.4518495 31.45454687 -9.4750185 27.56935692 C-9.48972434 24.58398639 -9.49063216 21.59873117 -9.48750877 18.61333084 C-9.48802306 17.18035564 -9.49328082 15.74737417 -9.50332069 14.31443405 C-9.51561247 12.31561652 -9.50697869 10.31670305 -9.49731445 8.31787109 C-9.49794388 7.17965912 -9.4985733 6.04144714 -9.4992218 4.8687439 C-9.37572861 3.98393341 -9.25223541 3.09912292 -9.125 2.1875 C-5.62447109 -0.14618594 -4.12885663 -0.05471979 0 0 Z " fill="#010100" transform="translate(102.125,72.8125)"/>
<path d="M0 0 C1.859375 0.22265625 1.859375 0.22265625 4 1 C5.265625 2.99609375 5.265625 2.99609375 6.25 5.4375 C6.58515625 6.24058594 6.9203125 7.04367188 7.265625 7.87109375 C8 10 8 10 8 12 C7.01 11.67 6.02 11.34 5 11 C4.05078125 8.93359375 4.05078125 8.93359375 3.3125 6.4375 C3.06113281 5.61121094 2.80976563 4.78492187 2.55078125 3.93359375 C2.36902344 3.29550781 2.18726563 2.65742187 2 2 C1.34 2 0.68 2 0 2 C0 1.34 0 0.68 0 0 Z " fill="#92A523" transform="translate(382,75)"/>
<path d="M0 0 C1.32 0.33 2.64 0.66 4 1 C2.768606 3.46278801 1.21935077 4.42497687 -1 6 C-1.66 5.67 -2.32 5.34 -3 5 C-2.01 3.35 -1.02 1.7 0 0 Z " fill="#6D7B19" transform="translate(419,125)"/>
<path d="" fill="#181C04" transform="translate(0,0)"/>
<path d="" fill="#181C04" transform="translate(0,0)"/>
</svg>
