<?xml version="1.0" standalone="no"?>
<!DOCTYPE svg PUBLIC "-//W3C//DTD SVG 20010904//EN"
 "http://www.w3.org/TR/2001/REC-SVG-20010904/DTD/svg10.dtd">
<svg version="1.0" xmlns="http://www.w3.org/2000/svg"
 width="3000.000000pt" height="2000.000000pt" viewBox="0 0 3000.000000 2000.000000"
 preserveAspectRatio="xMidYMid meet">

<g transform="translate(0.000000,2000.000000) scale(0.100000,-0.100000)"
fill="#000000" stroke="none">
<path d="M3512 11893 c-63 -727 -64 -1499 -5 -2195 l16 -198 337 0 338 0 6 43
c14 100 36 424 47 692 21 519 -1 1341 -47 1743 l-6 52 -337 0 -338 0 -11 -137z"/>
<path d="M5126 11973 c-29 -261 -56 -856 -56 -1218 0 -351 26 -889 56 -1192
l7 -63 891 0 c533 0 937 4 1006 10 470 43 715 158 829 392 61 124 76 191 76
343 0 116 -3 138 -28 210 -59 169 -170 291 -347 380 l-55 28 25 16 c92 61 168
148 214 246 46 95 60 163 59 276 -2 171 -47 292 -147 393 -99 101 -214 155
-412 195 -181 36 -326 41 -1233 41 l-878 0 -7 -57z m1586 -423 c138 -11 206
-34 260 -87 52 -51 72 -114 66 -217 -5 -90 -28 -148 -81 -203 l-31 -33 -538 0
-539 0 5 83 c3 45 8 154 11 242 3 88 8 175 12 193 l5 32 357 0 c196 0 409 -5
473 -10z m310 -1038 c99 -49 147 -122 148 -228 1 -171 -108 -278 -310 -303
-48 -6 -277 -11 -532 -11 l-447 0 -6 33 c-4 27 -25 453 -25 525 l0 23 553 -3
552 -3 67 -33z"/>
<path d="M8586 11948 c-46 -585 -62 -1086 -47 -1510 10 -289 28 -615 49 -858
l7 -85 1210 0 c1185 0 1210 0 1208 19 -1 11 -7 124 -14 253 l-13 233 -826 0
-827 0 -6 122 c-4 66 -7 188 -7 270 l0 148 760 0 760 0 0 235 0 235 -761 2
-761 3 1 150 c1 83 4 198 7 258 l7 107 823 0 823 0 5 33 c3 17 10 122 16 232
6 110 14 208 16 218 5 16 -57 17 -1209 17 l-1214 0 -7 -82z"/>
<path d="M11736 12013 c-7 -26 -34 -393 -46 -632 -13 -260 -13 -969 0 -1216
12 -230 39 -611 46 -642 l4 -23 391 0 391 0 -6 48 c-17 138 -39 462 -52 740
l-7 152 395 0 394 0 31 -32 c144 -154 378 -546 494 -825 l34 -83 438 0 439 0
-38 68 c-168 305 -454 720 -619 900 -37 40 -66 74 -64 76 2 1 34 17 72 34 371
171 540 562 410 954 -68 206 -226 356 -451 428 -203 66 -158 63 -1254 67 -951
4 -997 3 -1002 -14z m1650 -464 c116 -16 181 -44 241 -103 40 -40 55 -64 68
-110 43 -148 -17 -312 -149 -408 l-39 -28 -525 0 -525 0 6 233 c4 127 10 276
13 330 l7 97 413 0 c240 0 445 -5 490 -11z"/>
<path d="M15251 11898 c-43 -480 -58 -1029 -42 -1519 11 -368 19 -498 42 -751
l12 -128 339 0 c264 0 338 3 338 13 0 6 7 80 15 162 61 625 56 1692 -11 2298
l-7 57 -337 0 -337 0 -12 -132z"/>
<path d="M17606 11918 c-383 -591 -846 -1503 -1137 -2237 -38 -95 -69 -175
-69 -177 0 -2 186 -4 413 -4 l412 0 39 113 c21 61 61 167 88 235 l50 122 678
0 c530 0 680 -3 687 -12 14 -17 114 -273 148 -375 l27 -83 414 0 414 0 -17 43
c-147 376 -339 805 -555 1237 -245 492 -417 799 -621 1113 l-89 137 -404 0
-405 0 -73 -112z m585 -678 c114 -214 389 -785 389 -807 0 -2 -223 -3 -495 -3
-272 0 -495 2 -495 5 0 17 163 360 286 605 167 331 203 395 214 384 4 -5 50
-88 101 -184z"/>
<path d="M25845 11003 c-570 -45 -1035 -142 -1595 -331 -1105 -374 -2115 -958
-2975 -1721 -71 -63 -437 -423 -811 -801 l-682 -685 177 -3 c211 -4 751 13
1091 33 1267 77 2218 279 2905 615 602 295 1005 678 1324 1257 111 201 173
348 409 964 122 317 230 600 242 628 l20 51 -33 -2 c-17 -1 -50 -3 -72 -5z"/>
</g>
</svg>
