<?xml version="1.0" standalone="no"?>
<!DOCTYPE svg PUBLIC "-//W3C//DTD SVG 20010904//EN"
 "http://www.w3.org/TR/2001/REC-SVG-20010904/DTD/svg10.dtd">
<svg version="1.0" xmlns="http://www.w3.org/2000/svg"
 width="1000.000000pt" height="1000.000000pt" viewBox="0 0 1000.000000 1000.000000"
 preserveAspectRatio="xMidYMid meet">

<g transform="translate(0.000000,1000.000000) scale(0.100000,-0.100000)"
fill="#000000" stroke="none">
<path d="M3365 6015 l-25 -24 0 -466 0 -466 25 -24 c15 -16 36 -25 55 -25 19
0 40 9 55 25 l25 24 0 466 0 466 -25 24 c-15 16 -36 25 -55 25 -19 0 -40 -9
-55 -25z"/>
<path d="M9317 5990 l-27 -21 0 -174 0 -174 -52 32 c-49 30 -56 32 -152 32
-114 0 -158 -16 -229 -84 -129 -122 -134 -354 -12 -489 82 -92 243 -129 353
-82 28 12 57 28 63 36 16 20 29 17 29 -5 0 -47 88 -68 128 -31 l22 21 0 453
c0 417 -1 455 -17 475 -27 32 -73 37 -106 11z m-116 -463 c89 -60 114 -189 55
-292 -36 -65 -66 -80 -155 -80 -70 0 -81 3 -115 29 -49 37 -76 95 -76 168 0
68 12 103 48 142 38 40 78 55 148 56 47 0 69 -5 95 -23z"/>
<path d="M3692 5537 c-159 -160 -166 -172 -138 -225 23 -44 278 -290 309 -297
50 -13 105 42 88 87 -5 13 -62 75 -127 137 l-118 114 116 111 c64 61 121 121
127 133 22 43 -15 93 -68 93 -34 0 -48 -12 -189 -153z"/>
<path d="M4355 5679 c-16 -4 -50 -21 -75 -37 l-45 -28 -20 30 c-27 40 -83 48
-114 17 -20 -20 -21 -32 -21 -320 0 -299 0 -300 22 -315 33 -23 81 -20 106 7
19 20 21 35 24 212 3 212 10 237 78 282 44 30 131 32 177 3 64 -38 67 -53 73
-278 5 -199 6 -204 29 -223 33 -27 77 -24 108 7 l25 25 -5 207 c-3 159 -8 218
-21 253 -39 107 -130 169 -246 168 -36 0 -78 -5 -95 -10z"/>
<path d="M5055 5676 c-93 -30 -158 -84 -203 -169 -24 -47 -27 -62 -27 -152 0
-81 4 -109 22 -147 30 -66 96 -133 162 -165 50 -25 67 -28 156 -28 89 0 106 3
157 28 72 35 140 110 168 185 29 78 26 205 -8 274 -32 65 -94 125 -160 156
-67 32 -200 41 -267 18z m198 -140 c39 -16 82 -61 96 -99 17 -44 13 -137 -8
-183 -30 -66 -81 -98 -161 -102 -53 -3 -75 0 -108 17 -137 70 -136 305 3 367
39 17 137 18 178 0z"/>
<path d="M7069 5676 c-20 -7 -51 -23 -68 -35 -18 -13 -33 -22 -34 -20 -19 36
-28 45 -51 53 -35 13 -77 -3 -93 -34 -10 -19 -13 -93 -11 -308 l3 -284 24 -19
c30 -24 72 -24 102 0 23 19 24 24 29 218 4 167 8 204 24 236 24 48 61 67 130
67 47 0 60 -4 90 -31 20 -17 40 -47 46 -67 5 -20 10 -119 10 -219 0 -170 1
-184 20 -203 24 -24 76 -26 107 -5 21 14 22 24 25 218 3 192 4 204 26 240 31
49 68 67 136 67 47 0 60 -4 89 -30 48 -42 57 -88 57 -294 0 -163 2 -178 20
-196 12 -12 33 -20 55 -20 22 0 43 8 55 20 19 19 20 33 20 215 0 106 -5 217
-11 245 -16 75 -63 139 -129 173 -51 27 -62 29 -140 25 -95 -5 -134 -20 -191
-74 l-35 -34 -23 31 c-50 67 -188 99 -282 65z"/>
<path d="M8220 5681 c-92 -29 -169 -95 -208 -180 -22 -47 -26 -70 -26 -146 0
-77 4 -99 27 -150 55 -118 149 -185 272 -193 81 -5 137 8 189 43 l37 25 9 -24
c19 -50 86 -61 125 -21 l25 24 0 286 0 286 -25 24 c-14 15 -36 25 -52 25 -33
0 -73 -25 -73 -46 0 -17 -16 -19 -26 -3 -3 6 -30 22 -58 35 -39 18 -67 24
-121 23 -38 0 -81 -4 -95 -8z m217 -157 c99 -73 99 -276 0 -346 -37 -26 -128
-36 -180 -19 -143 48 -166 286 -35 366 38 23 52 26 115 23 54 -3 79 -9 100
-24z"/>
<path d="M5639 5661 c-23 -18 -24 -25 -27 -170 -6 -248 16 -332 104 -410 61
-53 134 -76 221 -68 65 6 149 41 189 78 21 20 21 20 52 -6 59 -49 119 -69 212
-69 69 0 93 4 130 23 61 32 97 67 128 126 26 48 27 57 30 248 2 109 1 209 -2
221 -6 23 -43 46 -75 46 -10 0 -30 -9 -44 -20 l-26 -20 -3 -198 c-3 -216 -9
-240 -71 -285 -38 -29 -125 -30 -164 -1 -57 42 -66 77 -71 296 -4 187 -6 200
-26 213 -29 21 -69 19 -99 -5 l-26 -20 -3 -203 c-3 -221 -9 -246 -65 -283 -36
-23 -117 -24 -161 0 -61 32 -72 74 -72 289 0 186 0 188 -25 212 -29 30 -74 32
-106 6z"/>
<path d="M6595 4905 c-25 -24 -25 -27 -25 -190 0 -152 -6 -186 -26 -154 -17
28 -99 52 -175 52 -130 -1 -241 -68 -296 -181 -25 -51 -28 -68 -28 -157 1 -88
4 -107 28 -156 32 -66 99 -132 165 -162 36 -16 67 -21 132 -22 78 0 90 3 141
32 l56 32 12 -25 c21 -46 87 -56 125 -18 14 14 16 71 16 474 l0 459 -22 21
c-30 27 -73 26 -103 -5z m-142 -439 c21 -8 48 -22 59 -33 72 -63 77 -225 11
-304 -68 -80 -204 -80 -276 0 -145 161 7 408 206 337z"/>
<path d="M597 4822 c-10 -10 -17 -29 -17 -42 0 -25 106 -271 211 -487 56 -118
79 -153 127 -201 101 -101 217 -152 348 -152 66 0 94 15 94 49 0 15 -309 752
-340 812 -7 13 -18 27 -24 31 -6 4 -95 8 -197 8 -168 0 -188 -2 -202 -18z"/>
<path d="M3637 4609 c-43 -10 -94 -35 -119 -57 -12 -9 -18 -11 -18 -4 0 7 -9
21 -20 32 -24 24 -77 26 -108 4 -22 -15 -22 -17 -22 -313 0 -222 3 -301 13
-314 20 -28 77 -32 109 -8 l27 21 3 198 c3 180 5 200 25 238 26 48 66 69 135
69 55 0 95 -25 120 -76 15 -29 18 -63 18 -227 0 -191 0 -193 25 -217 29 -30
74 -32 106 -6 23 19 24 24 29 223 6 237 12 257 87 290 82 36 159 10 194 -65
16 -36 19 -67 19 -230 0 -186 0 -188 25 -212 28 -29 54 -31 95 -10 l30 16 0
212 c0 248 -8 289 -70 359 -51 58 -105 81 -195 81 -81 0 -151 -26 -203 -76
l-32 -31 -38 37 c-61 59 -155 86 -235 66z"/>
<path d="M4770 4607 c-113 -26 -193 -87 -240 -182 -21 -42 -25 -64 -25 -145 0
-88 3 -101 33 -162 37 -76 83 -120 162 -157 46 -21 70 -26 145 -26 82 0 96 3
157 33 123 61 188 165 188 305 0 88 -11 128 -49 189 -73 115 -232 177 -371
145z m182 -159 c63 -35 90 -94 86 -184 -3 -57 -9 -79 -31 -113 -73 -110 -257
-108 -323 4 -34 59 -42 140 -20 198 43 114 176 158 288 95z"/>
<path d="M5540 4606 c-76 -17 -129 -46 -179 -101 -81 -88 -107 -196 -77 -315
28 -111 96 -191 201 -237 61 -26 215 -24 277 4 71 32 141 103 174 176 24 53
28 75 28 147 0 72 -4 94 -27 141 -48 99 -140 167 -252 188 -69 13 -74 13 -145
-3z m137 -138 c120 -30 175 -174 113 -298 -32 -64 -95 -100 -172 -100 -129 1
-213 115 -187 255 22 117 121 175 246 143z"/>
</g>
</svg>
