<?xml version="1.0" encoding="UTF-8"?>
<svg version="1.1" xmlns="http://www.w3.org/2000/svg" width="1200" height="722">
<path d="M0 0 C3.04359324 1.36169943 5.14499439 2.89509094 7.49762368 5.24807602 C8.17745211 5.92315363 8.85728053 6.59823124 9.55770981 7.29376575 C10.29803542 8.03905955 11.03836104 8.78435334 11.80112076 9.55223179 C12.59589502 10.34439877 13.39066928 11.13656574 14.20952761 11.95273778 C16.89383526 14.63070714 19.57090343 17.31580056 22.24810791 20.00086975 C24.18098634 21.93327197 26.11536955 23.86416536 28.04968429 25.79512972 C32.26592698 30.00567841 36.47842446 34.21994542 40.68851471 38.43664551 C46.94883507 44.70676755 53.21485252 50.97117271 59.4820447 57.2344252 C70.02364239 67.76974132 80.56050106 78.30978527 91.09461212 88.85258675 C101.52789062 99.29447079 111.96301197 109.73450696 122.40068817 120.17199516 C123.04922351 120.82052285 123.69775884 121.46905054 124.36594676 122.13723058 C126.99833898 124.7695819 129.63074356 127.40192087 132.26316498 130.03424299 C156.96978977 154.7399612 181.67098071 179.45110561 206.36945949 204.16496717 C228.33220916 226.14134527 250.29865398 248.11402279 272.26855469 270.08325195 C273.67952748 271.49418433 275.09050024 272.90511674 276.50147298 274.31604917 C277.19901844 275.01357428 277.8965639 275.71109939 278.6152471 276.42976162 C282.12629685 279.94071058 285.63734149 283.45166464 289.14838028 286.96262455 C289.84099436 287.65522192 290.53360844 288.34781929 291.24721083 289.06140446 C309.58513881 307.39896763 327.92061689 325.73898001 346.25525832 344.07982916 C346.90707098 344.73186208 347.55888363 345.38389501 348.23044818 346.05568651 C350.85175581 348.67788241 353.47306338 351.30007836 356.09435799 353.92228727 C365.22963548 363.06072946 374.36574247 372.19834162 383.50238163 381.3354224 C395.2722011 393.10583785 407.04033019 404.87793919 418.80551508 416.65298731 C425.03385682 422.88645978 431.26356641 429.11855779 437.49523169 435.34870773 C441.64947738 439.50222254 445.80191768 443.65753627 449.95284626 447.81436611 C452.32325854 450.18804855 454.69474025 452.56063595 457.06785706 454.93161631 C459.61494827 457.47666671 462.15900031 460.02471487 464.7022438 462.57360935 C465.45193408 463.32124431 466.20162436 464.06887927 466.97403252 464.83916983 C467.64384687 465.51174392 468.31366122 466.18431802 469.00377297 466.87727314 C469.87841772 467.75235514 469.87841772 467.75235514 470.77073206 468.64511556 C472 470 472 470 472 471 C159.49 471 -153.02 471 -475 471 C-468.24974134 463.12469823 -468.24974134 463.12469823 -465.5609436 460.43395996 C-464.95002365 459.82022018 -464.3391037 459.20648041 -463.70967102 458.57414246 C-463.06120712 457.92770279 -462.41274323 457.28126312 -461.74462891 456.61523438 C-460.6945742 455.56255119 -460.6945742 455.56255119 -459.62330627 454.48860168 C-457.3268868 452.18780978 -455.02686265 449.89066157 -452.7265625 447.59375 C-451.11747891 445.98399197 -449.50854371 444.37408558 -447.89974976 442.76403809 C-444.53407338 439.39689091 -441.16660413 436.0315499 -437.79785156 432.66748047 C-433.4951982 428.37051938 -429.19704399 424.06909039 -424.90023232 419.76628876 C-421.58021254 416.44264277 -418.25779895 413.1213979 -414.93467331 409.80085754 C-413.34962077 408.21646882 -411.76530167 406.63134598 -410.18175125 405.04545593 C-407.96164213 402.82278688 -405.73831729 400.60338302 -403.51416016 398.38476562 C-402.86974472 397.73832596 -402.22532928 397.09188629 -401.56138611 396.42585754 C-398.48629399 393.36482931 -395.36544246 390.41336959 -392.07833862 387.58032227 C-387.58924259 383.69823319 -383.41344539 379.53907492 -379.23242188 375.33007812 C-378.39554337 374.49173935 -377.55866486 373.65340057 -376.69642639 372.78965759 C-374.89204311 370.98148901 -373.0888153 369.17216677 -371.28663635 367.36180115 C-368.42977282 364.49209764 -365.56980345 361.62552426 -362.7088623 358.7598877 C-356.63625514 352.67623433 -350.56790016 346.58834765 -344.5 340.5 C-337.94654413 333.92446041 -331.3923351 327.34968187 -324.83321238 320.77979422 C-321.54119652 317.48203943 -318.25311021 314.1803973 -314.96569824 310.87805176 C-313.23314071 309.14185959 -311.50044144 307.40580885 -309.76757812 305.66992188 C-308.99539444 304.89257187 -308.22321075 304.11522186 -307.42762756 303.3143158 C-303.41413454 299.30043597 -299.3060214 295.48700568 -295.00759125 291.78174591 C-291.29339052 288.48537671 -287.82267403 284.94402372 -284.32421875 281.421875 C-283.49709381 280.59328979 -282.66996887 279.76470459 -281.81777954 278.91101074 C-280.03467697 277.12412327 -278.25272985 275.33608217 -276.47183228 273.54699707 C-273.64857684 270.71089979 -270.82220737 267.87792769 -267.99487305 265.04589844 C-261.9935951 259.03357523 -255.99656989 253.01701839 -250 247 C-243.52353379 240.50144882 -237.04631371 234.00365948 -230.56417942 227.51076126 C-227.31101843 224.25186221 -224.06178716 220.98907563 -220.81323242 217.72558594 C-219.1008979 216.00961673 -217.3884216 214.29378897 -215.67578125 212.578125 C-214.9129483 211.81012573 -214.15011536 211.04212646 -213.36416626 210.25085449 C-210.00016942 206.88652967 -206.60997689 203.6126027 -203.0057373 200.5057373 C-198.5369297 196.65279098 -194.38915738 192.51462441 -190.23242188 188.33007812 C-189.39554337 187.49173935 -188.55866486 186.65340057 -187.69642639 185.78965759 C-185.89204311 183.98148901 -184.0888153 182.17216677 -182.28663635 180.36180115 C-179.42977282 177.49209764 -176.56980345 174.62552426 -173.7088623 171.7598877 C-167.63625514 165.67623433 -161.56790016 159.58834765 -155.5 153.5 C-148.94654413 146.92446041 -142.3923351 140.34968187 -135.83321238 133.77979422 C-132.54119652 130.48203943 -129.25311021 127.1803973 -125.96569824 123.87805176 C-124.23314071 122.14185959 -122.50044144 120.40580885 -120.76757812 118.66992188 C-119.99539444 117.89257187 -119.22321075 117.11522186 -118.42762756 116.3143158 C-114.41594697 112.30224857 -110.30964008 108.49093875 -106.01319122 104.78734589 C-102.26533439 101.45993396 -98.76327317 97.8845527 -95.23242188 94.33007812 C-94.39554337 93.49173935 -93.55866486 92.65340057 -92.69642639 91.78965759 C-90.89204311 89.98148901 -89.0888153 88.17216677 -87.28663635 86.36180115 C-84.42977282 83.49209764 -81.56980345 80.62552426 -78.7088623 77.7598877 C-72.63625514 71.67623433 -66.56790016 65.58834765 -60.5 59.5 C-53.94654413 52.92446041 -47.3923351 46.34968187 -40.83321238 39.77979422 C-37.54119652 36.48203943 -34.25311021 33.1803973 -30.96569824 29.87805176 C-29.23314071 28.14185959 -27.50044144 26.40580885 -25.76757812 24.66992188 C-24.99539444 23.89257187 -24.22321075 23.11522186 -23.42762756 22.3143158 C-19.3187686 18.20506084 -15.12498784 14.26536635 -10.71031952 10.485466 C-8.36530147 8.44874447 -6.1785 6.27503906 -4 4.0625 C-2.8553125 2.90427734 -2.8553125 2.90427734 -1.6875 1.72265625 C-1.130625 1.15417969 -0.57375 0.58570313 0 0 Z " fill="#7AB51B" transform="translate(599,250)"/>
<path d="M0 0 C2.33120822 0.98617371 3.66568569 2.22596909 5.44568634 4.02589512 C6.4662915 5.04684017 6.4662915 5.04684017 7.50751495 6.08841038 C8.23057831 6.82695759 8.95364166 7.5655048 9.69861603 8.32643223 C10.82212463 9.4563081 10.82212463 9.4563081 11.96833038 10.60900974 C14.35951147 13.01698642 16.74005268 15.43518343 19.12049103 17.85377598 C20.7395928 19.48792336 22.35937635 21.12139553 23.97986603 22.7541666 C27.95135285 26.75873444 31.91415313 30.77174405 35.87049103 34.79127598 C30.35376271 46.52458632 24.74848671 58.20312733 18.93299103 69.79127598 C18.59209442 70.4725153 18.25119781 71.15375462 17.89997101 71.85563755 C13.30534102 81.03619709 8.65127776 90.18047705 3.78870392 99.2229166 C1.93163813 102.68844831 0.29406284 106.12881395 -1.12950897 109.79127598 C-0.19719452 109.36008457 0.73511993 108.92889317 1.69568634 108.48463535 C18.92680258 100.52038049 36.17502472 92.59343148 53.50611115 84.84864902 C55.07696867 84.14614668 56.64704446 83.44189361 58.21631622 82.73585606 C60.41125421 81.74911181 62.60912058 80.76921976 64.80799103 79.79127598 C65.45226044 79.50039097 66.09652985 79.20950596 66.76032257 78.90980625 C73.32493092 76.01049794 73.32493092 76.01049794 76.87049103 75.79127598 C78.52942657 76.86085606 78.52942657 76.86085606 80.00720978 78.56080723 C80.57625031 79.19438145 81.14529083 79.82795567 81.73157501 80.4807291 C82.63565094 81.53163731 82.63565094 81.53163731 83.55799103 82.60377598 C84.87253856 84.07145689 86.19039611 85.53617818 87.51111603 86.99830723 C88.20914337 87.77512852 88.90717072 88.55194981 89.6263504 89.35231113 C93.55846966 93.62579583 97.68474606 97.70328293 101.80799103 101.79127598 C102.60745148 102.58638584 103.40691193 103.3814957 104.23059845 104.20069981 C106.1083267 106.06650336 107.98818622 107.93009146 109.87049103 109.79127598 C108.51417275 112.82002057 106.99402337 114.91647008 104.64929962 117.25538731 C103.66720016 118.24210171 103.66720016 118.24210171 102.66526031 119.24874973 C101.95697083 119.94985371 101.24868134 120.65095768 100.51892853 121.37330723 C99.78606628 122.10571125 99.05320404 122.83811527 98.29813385 123.59271336 C96.74535274 125.14247445 95.190143 126.68980543 93.63269806 128.23487949 C91.27005275 130.57940266 88.91537368 132.93169346 86.56189728 135.2854166 C85.04804269 136.79435015 83.53373386 138.30282813 82.01892853 139.81080723 C81.32278442 140.50583851 80.62664032 141.20086979 79.90940094 141.91696262 C76.77739614 145.01930536 73.62605119 148.03333154 70.26258087 150.88380527 C64.34809621 155.99570943 58.95881515 161.66118087 53.47956848 167.22929478 C50.70431824 170.0469451 47.91944559 172.85500406 45.13516617 175.66372776 C39.96509384 180.87942391 34.79914604 186.09905816 29.64929962 191.33473301 C26.05225615 194.99098553 22.44327398 198.63506361 18.82595825 202.27125645 C17.45146668 203.65751517 16.08152927 205.04830453 14.7162323 206.44361973 C12.81572962 208.38489805 10.90043069 210.3103013 8.98084259 212.23268223 C8.13762199 213.10522396 8.13762199 213.10522396 7.27736664 213.9953928 C5.68939972 215.56691074 5.68939972 215.56691074 2.87049103 217.79127598 C-1.51108282 217.32003833 -3.83902746 214.46471738 -6.77013397 211.44361973 C-7.29717926 210.9123296 -7.82422455 210.38103947 -8.36724091 209.83364964 C-10.04518084 208.13894773 -11.71237625 206.43410381 -13.37950897 204.72877598 C-14.51683642 203.57639853 -15.65484963 202.42469746 -16.79357147 201.27369785 C-19.58022889 198.45400413 -22.35729689 195.6251701 -25.12950897 192.79127598 C-23.56007214 189.00826371 -21.1984962 186.61871051 -18.31261444 183.74733067 C-17.82464386 183.25906803 -17.33667328 182.7708054 -16.83391571 182.26774693 C-15.22620622 180.66142636 -13.61153796 179.06229885 -11.99669647 177.46315098 C-10.87810663 176.34829281 -9.75995868 175.23299111 -8.6422348 174.11726475 C-5.70391573 171.18656989 -2.75963942 168.26193176 0.18592072 165.33851719 C3.19247365 162.35244873 6.19334984 159.36068739 9.19470978 156.36940098 C15.08109789 150.50444142 20.97379203 144.64586866 26.87049103 138.79127598 C11.92694592 145.20947244 -2.89599424 151.84302373 -17.62950897 158.72877598 C-20.3270294 159.98692432 -23.02494441 161.24421556 -25.72338104 162.50039768 C-27.37461407 163.26932706 -29.02529274 164.03944857 -30.67528534 164.81103611 C-32.82309187 165.81253309 -34.97461319 166.8051356 -37.12950897 167.79127598 C-37.78910614 168.09510197 -38.44870331 168.39892796 -39.12828827 168.71196079 C-41.9839698 169.99015376 -43.96219464 170.79127598 -47.12950897 170.79127598 C-48.67247772 169.32252598 -48.67247772 169.32252598 -50.31700897 167.29127598 C-53.5141238 163.42324626 -56.97002085 160.07440445 -60.72325897 156.74830723 C-62.12950897 154.79127598 -62.12950897 154.79127598 -61.92736053 152.63014317 C-60.91610912 149.03196953 -59.3918511 145.76494378 -57.77013397 142.41236973 C-57.42899063 141.69544956 -57.08784729 140.9785294 -56.73636627 140.23988438 C-56.00294868 138.70002918 -55.26704312 137.16135697 -54.52889252 135.62376499 C-53.37217298 133.21348986 -52.22255276 130.79995295 -51.07506561 128.38527012 C-49.51767061 125.10830125 -47.9584632 121.83220757 -46.39757538 118.55690098 C-43.3839578 112.22886347 -40.3863934 105.89348819 -37.41771698 99.54423618 C-36.57971929 97.75590053 -35.73503464 95.97070325 -34.89025116 94.18556309 C-34.14050018 92.58080112 -34.14050018 92.58080112 -33.37560272 90.94361973 C-32.9391745 90.01541416 -32.50274628 89.0872086 -32.05309296 88.13087559 C-30.94591576 85.74541895 -30.94591576 85.74541895 -31.12950897 82.79127598 C-31.90294647 83.57631504 -32.67638397 84.3613541 -33.47325897 85.17018223 C-34.52520281 86.23151842 -35.57729418 87.29270841 -36.62950897 88.35377598 C-37.13482147 88.86746738 -37.64013397 89.38115879 -38.16075897 89.9104166 C-41.0054157 92.77285243 -43.91219001 95.50051359 -46.97325897 98.13111973 C-51.59091927 102.12517494 -55.85109904 106.43985564 -60.12950897 110.79127598 C-65.61220634 116.36753474 -71.17216174 121.7242334 -77.12950897 126.79127598 C-79.43950897 128.77127598 -81.74950897 130.75127598 -84.12950897 132.79127598 C-92.37950897 124.54127598 -100.62950897 116.29127598 -109.12950897 107.79127598 C-107.46502218 104.4623024 -106.53362028 102.94318909 -104.00450897 100.47877598 C-103.46568085 99.94639317 -102.92685272 99.41401035 -102.37169647 98.86549473 C-100.46745527 97.10390575 -98.52742229 95.41646988 -96.55852509 93.72865391 C-91.83334559 89.59731996 -87.42820539 85.18669371 -83.02306366 80.71901035 C-82.15049927 79.83856052 -81.27793488 78.95811069 -80.37892914 78.05098057 C-78.49769629 76.15263902 -76.61737002 74.25344204 -74.73829651 72.35296726 C-71.76708614 69.34889574 -68.78971108 66.35098509 -65.81096649 63.35438633 C-64.7879215 62.32508223 -63.76487691 61.29577773 -62.74183273 60.26647282 C-62.23003794 59.7515619 -61.71824315 59.23665098 -61.19093943 58.7061367 C-54.26741088 51.73968493 -47.34863876 44.7686038 -40.4439621 37.78346348 C-35.7697385 33.05486527 -31.0867652 28.33512931 -26.39346623 23.6254611 C-23.91403826 21.13664905 -21.43943011 18.64342542 -18.97554016 16.13922215 C-16.2365341 13.35551332 -13.47843096 10.59123403 -10.71837616 7.82838535 C-9.49645065 6.57713871 -9.49645065 6.57713871 -8.24983978 5.30061436 C-7.49862854 4.55483128 -6.7474173 3.80904819 -5.97344208 3.04066563 C-4.99902224 2.05738411 -4.99902224 2.05738411 -4.00491714 1.05423832 C-2.12950897 -0.20872402 -2.12950897 -0.20872402 0 0 Z " fill="#000000" transform="translate(603.129508972168,0.2087240219116211)"/>
<path d="M0 0 C7.1655739 6.09961598 14.16724563 12.33917184 20.99243164 18.81835938 C22.45749313 20.1910296 23.94086854 21.54440707 25.44165039 22.87792969 C27.62923341 24.82744587 29.74363903 26.83621899 31.85546875 28.8671875 C32.87062813 29.7322139 32.87062813 29.7322139 33.90629578 30.61471558 C36.01141277 32.72587356 37.07198497 34.15315665 38 37 C37.54550854 41.79583925 36.21422439 46.15025221 34.72815514 50.71792221 C33.7416508 53.80968045 32.89176931 56.93329275 32.03485107 60.06298828 C31.10003025 63.46509818 30.13040037 66.85699627 29.16294289 70.24994278 C28.37432968 73.01617389 27.58907167 75.78333928 26.80461121 78.55075073 C24.86035447 85.40748143 22.91132381 92.26285208 20.96099854 99.11785889 C19.30157975 104.9505095 17.64468603 110.78386436 15.99149132 116.61828232 C15.22014733 119.33658989 14.44505966 122.05381194 13.6698761 124.77102661 C13.1974414 126.43730072 12.72519701 128.1036288 12.25317383 129.77001953 C12.03863556 130.51812393 11.82409729 131.26622833 11.60305786 132.03700256 C10.48393861 136.00468527 9.58967212 139.91926549 9 144 C17.15135784 136.87214957 24.80926137 129.32205058 32.4453125 121.65234375 C33.7087538 120.38703269 34.97241953 119.1219457 36.23629761 117.85707092 C39.52965711 114.55993019 42.82000002 111.2597956 46.10968018 107.95898438 C49.48012396 104.57823093 52.85347232 101.20037831 56.2265625 97.82226562 C62.82052149 91.21764702 69.41129079 84.60985546 76 78 C81.55309406 80.59997357 85.46315017 85.05331316 89.75610352 89.33056641 C91.31281353 90.87531112 92.88721009 92.40042234 94.46289062 93.92578125 C95.45166381 94.90509733 96.43933375 95.88552883 97.42578125 96.8671875 C98.77796753 98.19919189 98.77796753 98.19919189 100.1574707 99.55810547 C102 102 102 102 101.95214844 104.1340332 C100.93778404 106.12192733 99.93153495 107.42704299 98.33984375 108.98828125 C97.79263672 109.53033203 97.24542969 110.07238281 96.68164062 110.63085938 C96.10607422 111.18580078 95.53050781 111.74074219 94.9375 112.3125 C94.38900391 112.85583984 93.84050781 113.39917969 93.27539062 113.95898438 C90.37580084 116.80481583 87.40600171 119.53191773 84.32006836 122.17433167 C79.78546127 126.13091249 75.5331376 130.33341845 71.2890625 134.59741211 C70.04372993 135.84252563 70.04372993 135.84252563 68.77323914 137.11279297 C66.05477973 139.83194392 63.33987044 142.55460989 60.625 145.27734375 C58.73093141 147.17327921 56.83666628 149.06901623 54.94213867 150.9644928 C50.4815207 155.42820499 46.02345551 159.89445755 41.5663271 164.36165386 C36.48721787 169.45198388 31.40523082 174.5394367 26.32301331 179.62666309 C15.87882899 190.0812685 5.43822 200.53943954 -5 211 C-7.80179051 209.64419568 -9.96114254 208.32275176 -12.23974609 206.19360352 C-12.84652191 205.62863663 -13.45329773 205.06366974 -14.07846069 204.48158264 C-16.80917288 201.88045857 -19.52776118 199.26771866 -22.22900391 196.63598633 C-23.65723745 195.25601051 -25.09873332 193.88962756 -26.55322266 192.53735352 C-28.6589394 190.57795329 -30.71847502 188.57881535 -32.7734375 186.56640625 C-33.42742523 185.97324112 -34.08141296 185.38007599 -34.75521851 184.76893616 C-36.62101805 182.88576451 -37.83094263 181.38152923 -39 179 C-38.88471508 176.55955887 -38.88471508 176.55955887 -38.29911804 173.88043213 C-38.09313869 172.90697122 -37.88715935 171.9335103 -37.6749382 170.93055058 C-37.4522086 169.96346889 -37.22947899 168.9963872 -37 168 C-36.81563007 167.16454619 -36.63126015 166.32909239 -36.44130325 165.4683218 C-35.87479842 162.95407103 -35.27998872 160.44799767 -34.67749023 157.94213867 C-34.34296341 156.53504135 -34.34296341 156.53504135 -34.00167847 155.09951782 C-33.27328659 152.03836661 -32.54089331 148.97818725 -31.80859375 145.91796875 C-31.29787028 143.77337442 -30.78746393 141.62870455 -30.27735901 139.48396301 C-28.94034005 133.8650312 -27.60020149 128.24684895 -26.2590332 122.62890625 C-24.10863461 113.62087694 -21.96102522 104.61218709 -19.81718636 95.60259438 C-19.06945784 92.46357695 -18.3191733 89.32517799 -17.56871033 86.18681335 C-17.11007148 84.26153065 -16.6515343 82.33622372 -16.19311523 80.41088867 C-15.98478561 79.54272018 -15.77645599 78.6745517 -15.56181335 77.78007507 C-14.55372139 73.53515451 -13.64983033 69.31838688 -13 65 C-20.31397003 72.29071994 -27.62517742 79.58419806 -34.93294621 86.88113403 C-38.32692905 90.26991564 -41.72182847 93.65776793 -45.11889648 97.04345703 C-48.40198401 100.31561712 -51.68256707 103.59026948 -54.96148491 106.86660767 C-56.20800773 108.11129391 -57.45540502 109.35510509 -58.703722 110.59799194 C-67.45361923 119.29474869 -67.45361923 119.29474869 -75.69309998 128.47167969 C-77.36000548 130.42099906 -79.15046571 132.22444708 -81 134 C-84.90851199 132.41568547 -87.52367356 129.73364905 -90.421875 126.7734375 C-90.92672424 126.26575836 -91.43157349 125.75807922 -91.95172119 125.23501587 C-93.55592096 123.61966158 -95.15300856 121.99747791 -96.75 120.375 C-97.83938107 119.27558302 -98.9292199 118.17661941 -100.01953125 117.078125 C-102.68501885 114.3906398 -105.34415143 111.69700979 -108 109 C-106.54899916 105.67064762 -104.73042576 103.48118173 -102.16879272 100.92155457 C-101.36984589 100.11841324 -100.57089905 99.31527191 -99.7477417 98.48779297 C-98.86982971 97.61550049 -97.99191772 96.74320801 -97.08740234 95.84448242 C-95.70172562 94.45595818 -95.70172562 94.45595818 -94.28805542 93.03938293 C-91.7550926 90.50157477 -89.21592547 87.970059 -86.67547178 85.43975234 C-84.01201477 82.7850935 -81.35384593 80.12514912 -78.69497681 77.46589661 C-74.2243701 72.99622655 -69.74990879 68.53044501 -65.27294922 64.06713867 C-60.1119566 58.9218283 -54.95616508 53.77135409 -49.8033756 48.6178295 C-44.30372653 43.11750203 -38.80026412 37.62100209 -33.29569674 32.12559724 C-31.71778277 30.54980481 -30.14057157 28.97331194 -28.56351852 27.39665794 C-25.60832381 24.44266504 -22.64887406 21.49297012 -19.68896484 18.54370117 C-18.82319824 17.67748138 -17.95743164 16.8112616 -17.06542969 15.91879272 C-12.70500428 11.58116168 -8.2796841 7.38904878 -3.60468483 3.39104176 C-2.35816277 2.31047802 -1.16649801 1.16649801 0 0 Z " fill="#000000" transform="translate(1098,499)"/>
<path d="M0 0 C4.57525164 3.83858603 8.96137305 7.7996606 13.20727539 11.99853516 C13.78387405 12.56535004 14.36047272 13.13216492 14.95454407 13.71615601 C16.83868442 15.57067723 18.71880909 17.42917941 20.59765625 19.2890625 C21.24570158 19.930536 21.89374691 20.57200951 22.56142998 21.2329216 C25.98883259 24.6278822 29.41225232 28.02681101 32.83325195 31.42822266 C35.64647245 34.22363333 38.46795645 37.01027751 41.29711914 39.78955078 C44.73573642 43.16763671 48.15907931 46.56053118 51.57238579 49.96418381 C52.86568194 51.2489854 54.16405904 52.52869559 55.46782112 53.80287552 C66.48408906 64.5824255 74.35507143 74.91587228 75 91 C74.66771405 102.08101418 69.85504441 113.2965909 62.3125 121.4375 C50.96051831 131.64990052 38.86023074 135.35003362 23.87109375 135.30078125 C20.71103988 135.0552473 17.84898068 134.6186081 14.75805664 133.98120117 C13.86486221 133.79829025 12.97166779 133.61537933 12.05140686 133.42692566 C11.03596046 133.21559746 11.03596046 133.21559746 10 133 C7.99179738 139.29064351 5.98376203 145.5813404 3.97583008 151.87207031 C3.29617892 154.00131368 2.61649279 156.13054589 1.93676758 158.25976562 C-2.7168782 172.8372852 -7.36322502 187.41710508 -12 202 C-17.09186667 202 -18.68008207 199.94848842 -22.078125 196.55859375 C-22.64956238 195.9980983 -23.22099976 195.43760284 -23.80975342 194.86012268 C-25.0150636 193.67067836 -26.21508409 192.47585342 -27.41015625 191.27612305 C-29.2384799 189.44901246 -31.09404905 187.65316504 -32.953125 185.85742188 C-34.12157987 184.69711049 -35.28830599 183.53505509 -36.453125 182.37109375 C-37.00929504 181.83850449 -37.56546509 181.30591522 -38.13848877 180.75718689 C-40.70636554 178.12667463 -41.95513961 176.55490361 -42.25520325 172.84324646 C-41.96852959 168.5260698 -41.20984902 164.53338688 -40.23999023 160.32666016 C-39.95960403 159.06932571 -39.95960403 159.06932571 -39.67355347 157.78659058 C-39.26924889 155.97818587 -38.86152222 154.17054349 -38.4507122 152.3636055 C-37.8014944 149.50783398 -37.16134924 146.65015978 -36.52345276 143.7918396 C-35.16975979 137.73434957 -33.80393952 131.67962503 -32.4375 125.625 C-30.85093406 118.58804493 -29.26929392 111.5500248 -27.69658089 104.50996017 C-27.06383438 101.68743963 -26.42388682 98.86661459 -25.78355408 96.04580688 C-25.39892099 94.32960053 -25.0145911 92.61332618 -24.63061523 90.89697266 C-24.44935593 90.10740173 -24.26809662 89.31783081 -24.0813446 88.5043335 C-23.67661074 86.67881354 -23.331362 84.8402532 -23 83 C-23.33 82.67 -23.66 82.34 -24 82 C-24.66763367 82.67873672 -25.33526733 83.35747345 -26.02313232 84.05677795 C-32.30731558 90.44218703 -38.60455992 96.81445331 -44.91492844 103.1739893 C-48.15898137 106.44416932 -51.39820712 109.71885089 -54.62695312 113.00415039 C-57.74130051 116.17270503 -60.86759835 119.32899542 -64.00266266 122.47704887 C-65.19838087 123.68202716 -66.38967917 124.8914076 -67.57649994 126.10515022 C-69.2359065 127.80069572 -70.9101477 129.48009921 -72.58886719 131.15649414 C-73.07942596 131.6650293 -73.56998474 132.17356445 -74.07540894 132.69750977 C-75.46893311 134.07020569 -75.46893311 134.07020569 -78 136 C-82.51083617 135.91437057 -85.11518077 132.26149543 -88.078125 129.21484375 C-88.93528107 128.35132042 -88.93528107 128.35132042 -89.80975342 127.47035217 C-91.63033802 125.63299681 -93.44020568 123.78547868 -95.25 121.9375 C-96.48368253 120.68876862 -97.71804978 119.44071331 -98.953125 118.19335938 C-101.97674655 115.1366898 -104.99079921 112.07086474 -108 109 C-106.45280367 105.3146169 -104.2162186 102.96853508 -101.40185547 100.15893555 C-100.9364888 99.69167053 -100.47112213 99.22440552 -99.99165344 98.74298096 C-98.45500444 97.20263441 -96.91128176 95.66959903 -95.3671875 94.13671875 C-94.29025373 93.06097845 -93.21369086 91.98486671 -92.13748169 90.90840149 C-89.87923957 88.65172298 -87.61768163 86.39843971 -85.35351562 84.14770508 C-82.47050868 81.28159569 -79.5940349 78.40904108 -76.71984673 75.534091 C-74.49460999 73.30912822 -72.26676025 71.08679716 -70.03805923 68.86530495 C-68.97788199 67.80828214 -67.91828493 66.75067706 -66.85931015 65.69244957 C-57.59184099 56.43866346 -57.59184099 56.43866346 -53.00439453 52.50878906 C-47.5545618 47.83408401 -42.56057134 42.68409434 -37.5 37.59765625 C-36.41306197 36.50884896 -35.32589985 35.42026534 -34.23852539 34.33189392 C-31.40216777 31.49175111 -28.56882836 28.6486164 -25.73614502 25.80480957 C-22.83505747 22.89342109 -19.93107287 19.98492533 -17.02734375 17.07617188 C-11.34875182 11.3869133 -5.67335084 5.69448501 0 0 Z M3.56982422 53.203125 C2.55963394 54.21363297 1.55495538 55.22966922 0.5546875 56.25 C0.02481232 56.78270508 -0.50506287 57.31541016 -1.05099487 57.86425781 C-2.74706569 59.5715493 -4.43606261 61.28565424 -6.125 63 C-7.27167713 64.15670449 -8.41880686 65.3129605 -9.56640625 66.46875 C-12.38288792 69.30731703 -15.19304322 72.15201506 -18 75 C-14.79129829 78.80765937 -11.58368909 82.53576721 -8 86 C-5.4693449 88.47314022 -3.18585926 90.97015725 -1 93.75 C2.72200104 98.12235068 6.79533652 100.56345141 12.5234375 101.34375 C17.73160428 101.53143169 21.64087154 101.07120414 26 98 C30.24048313 93.77990381 33.68598358 89.7738117 34.375 83.6875 C33.46036444 74.69358371 26.53825327 69.10047123 20.40869141 63.07250977 C18.86297624 61.5506619 17.33130077 60.01563011 15.80078125 58.47851562 C10.3190828 51.49514039 10.3190828 51.49514039 3.56982422 53.203125 Z " fill="#000000" transform="translate(839,238)"/>
<path d="M0 0 C20.09471534 -0.5591001 39.74387331 5.15706288 55.01171875 18.49609375 C56.61351533 20.01856814 58.19775504 21.55978082 59.76171875 23.12109375 C60.80972656 24.15169922 60.80972656 24.15169922 61.87890625 25.203125 C76.92560628 40.98166842 83.87639633 62.65145607 83.76171875 84.12109375 C82.32906531 104.90593887 72.63978192 121.74129845 57.875 135.88671875 C38.6062972 152.66000877 17.13487842 158.7925979 -8.23828125 157.12109375 C-28.11890976 154.51913875 -45.41251062 141.96591372 -58.23828125 127.12109375 C-71.16396699 110.21789196 -77.41831376 90.36933269 -74.76953125 69.12890625 C-72.5024036 53.23721342 -66.48589091 40.14186291 -57.23828125 27.12109375 C-56.74714844 26.42371094 -56.25601562 25.72632813 -55.75 25.0078125 C-44.25113417 10.25263069 -24.50253806 2.69843634 -6.42578125 0.37109375 C-4.28466178 0.20822566 -2.1440924 0.11599802 0 0 Z M-31.3515625 47.625 C-37.25153784 55.82144607 -40.29142711 63.69744795 -38.83984375 73.9296875 C-34.65645263 91.27845655 -20.28673817 105.41401052 -5.625 114.8046875 C3.10650794 119.62059286 12.60243531 122.50043131 22.4609375 119.98046875 C32.49774911 116.23157477 41.30207876 107.31010837 45.9140625 97.7265625 C48.30171673 90.38755158 47.30804777 82.54615739 44.1484375 75.6171875 C39.27180121 66.83924217 32.61211287 59.39573814 25.76171875 52.12109375 C25.18808594 51.48300781 24.61445313 50.84492188 24.0234375 50.1875 C15.70984602 41.27866331 5.75560755 36.22238626 -6.30078125 34.74609375 C-16.24837176 36.01599892 -24.78990933 39.85047194 -31.3515625 47.625 Z " fill="#000000" transform="translate(384.23828125,236.87890625)"/>
<path d="M0 0 C9.68066614 8.60204039 13.13096992 20.89612218 13.88671875 33.34375 C13.86528654 39.80198934 13.77718372 48.07063256 10.875 53.875 C11.82262207 54.09559082 12.77024414 54.31618164 13.74658203 54.54345703 C24.2890383 57.05549309 34.49713156 60.25465395 44.75 63.75 C46.25891862 64.25969508 47.76803312 64.76881064 49.27734375 65.27734375 C52.27665883 66.28858016 55.27491081 67.30288064 58.27246094 68.31933594 C65.79678335 70.8672869 73.33665584 73.36891044 80.875 75.875 C80.875 79.56069574 79.67582418 80.45161269 77.19160461 83.00088501 C76.6604454 83.52910858 76.12928619 84.05733215 75.58203125 84.6015625 C75.03898849 85.14984711 74.49594574 85.69813171 73.93644714 86.26303101 C72.7842571 87.42164876 71.6281598 88.57639193 70.46850586 89.72753906 C68.69951874 91.48803893 66.94993705 93.2663141 65.20117188 95.046875 C64.0792571 96.17040245 62.95624482 97.29283526 61.83203125 98.4140625 C61.31099319 98.94633453 60.78995514 99.47860657 60.25312805 100.02700806 C57.14924189 103.07267585 55.20470322 104.52994612 50.875 104.875 C47.95379637 104.31164353 45.18111849 103.66331968 42.32104492 102.87719727 C41.04710876 102.54091812 41.04710876 102.54091812 39.74743652 102.19784546 C36.94727011 101.45595696 34.15148041 100.6987885 31.35546875 99.94140625 C29.41230546 99.42336501 27.46888624 98.90628289 25.52522278 98.39012146 C20.41481108 97.03023586 15.30797967 95.65735047 10.20178223 94.28173828 C4.98883291 92.87983458 -0.22739383 91.49024016 -5.44335938 90.09960938 C-15.67382005 87.37011723 -25.90054099 84.62688181 -36.125 81.875 C-33.06530813 85.76074308 -29.81465605 89.30339117 -26.29296875 92.76953125 C-25.73813309 93.32058029 -25.18329742 93.87162933 -24.61164856 94.43937683 C-22.25881861 96.77601753 -19.90011315 99.10669224 -17.54174805 101.43774414 C-5.9982189 112.85920452 -5.9982189 112.85920452 -0.78198242 118.9909668 C2.56404517 122.7954894 6.2114542 126.31406868 9.8125 129.875 C10.98135742 131.03708984 10.98135742 131.03708984 12.17382812 132.22265625 C14.0719242 134.10910757 15.97233149 135.99316245 17.875 137.875 C16.24772063 141.92985012 13.37205049 144.71812954 10.3515625 147.76953125 C9.80897797 148.32114426 9.26639343 148.87275726 8.70736694 149.44108582 C7.5618779 150.60104491 6.41358899 151.7582449 5.26269531 152.9128418 C3.50070956 154.68678562 1.75823584 156.47853036 0.015625 158.27148438 C-1.10041018 159.39697714 -2.2175604 160.52136557 -3.3359375 161.64453125 C-3.85586273 162.1839888 -4.37578796 162.72344635 -4.91146851 163.2792511 C-6.40771484 164.75708008 -6.40771484 164.75708008 -9.125 166.875 C-13.32849876 166.75363721 -15.74984668 163.6587497 -18.5168457 160.83959961 C-19.04263214 160.31585754 -19.56841858 159.79211548 -20.11013794 159.25250244 C-21.84769795 157.51795146 -23.57426861 155.7728858 -25.30078125 154.02734375 C-26.51082397 152.8142411 -27.72146037 151.60173036 -28.93266296 150.38978577 C-31.4732971 147.84454638 -34.00894204 145.29447593 -36.54077148 142.74047852 C-39.76840739 139.48471109 -43.00451376 136.23753935 -46.24400043 132.99356747 C-49.34941385 129.88296361 -52.4501432 126.76770633 -55.55078125 123.65234375 C-56.13507715 123.06616713 -56.71937305 122.4799905 -57.32137489 121.87605095 C-62.8420675 116.33241547 -68.2962577 110.78620824 -73.38471985 104.8374176 C-77.13661636 100.60661158 -81.20641831 96.67305101 -85.21484375 92.6875 C-86.16912993 91.73508388 -87.12319188 90.78244305 -88.07704163 89.82958984 C-90.5620797 87.34833075 -93.05010796 84.87009209 -95.53881836 82.39251709 C-98.08827496 79.85337515 -100.63482688 77.31132354 -103.18164062 74.76953125 C-108.15995631 69.80187118 -113.14144371 64.83740314 -118.125 59.875 C-116.34882954 56.05548317 -113.93546747 53.41133932 -110.9609375 50.48046875 C-110.45003571 49.97002518 -109.93913391 49.4595816 -109.41275024 48.93367004 C-108.33075408 47.85468943 -107.24633401 46.77813476 -106.15966797 45.70385742 C-104.52131724 44.08358205 -102.89093063 42.45563068 -101.26171875 40.82617188 C-92.66092984 32.25575002 -92.66092984 32.25575002 -88.08984375 28.36328125 C-84.70926695 25.47435294 -81.58604907 22.36594323 -78.48046875 19.1875 C-77.97997009 18.67677444 -77.47947144 18.16604889 -76.96380615 17.6398468 C-74.89256779 15.52348759 -72.82336065 13.40549981 -70.76928711 11.27246094 C-50.32845175 -9.91197272 -25.84058633 -17.5715987 0 0 Z M-55.9375 41.9375 C-56.59169922 42.54916016 -57.24589844 43.16082031 -57.91992188 43.79101562 C-60.94180199 46.64621389 -63.79624691 49.40351305 -66.125 52.875 C-65.48433594 53.5040625 -64.84367187 54.133125 -64.18359375 54.78125 C-59.53828141 59.37810156 -55.04458519 64.01469327 -50.796875 68.98046875 C-48.05246498 72.09037263 -45.09706494 74.98423774 -42.125 77.875 C-36.76358457 74.85300523 -32.8293093 70.9469214 -28.5 66.625 C-27.736875 65.88636719 -26.97375 65.14773438 -26.1875 64.38671875 C-21.44969549 59.67385006 -17.57933822 55.5753354 -16.91015625 48.65234375 C-18.1380935 40.50645019 -22.7300052 35.71062415 -29.125 30.875 C-31.35348186 29.76075907 -32.77178397 29.61225369 -35.25 29.5 C-35.97445312 29.45101562 -36.69890625 29.40203125 -37.4453125 29.3515625 C-44.88157229 30.80412637 -50.64577498 36.87141198 -55.9375 41.9375 Z " fill="#000000" transform="translate(298.125,354.125)"/>
<path d="M0 0 C4.09108884 1.88496708 6.89702685 4.62230379 10.03442383 7.79150391 C10.62848526 8.38366699 11.22254669 8.97583008 11.83460999 9.5859375 C13.79700314 11.54462707 15.7521016 13.51042586 17.70703125 15.4765625 C19.07423508 16.84495924 20.44180966 18.21298564 21.80973816 19.58065796 C24.67843251 22.45091685 27.54373641 25.32450379 30.40649414 28.20068359 C34.05953531 31.87064215 37.71905123 35.53405694 41.38094044 39.19518471 C44.20810347 42.0226211 47.03264137 44.85266781 49.85632896 47.68357468 C51.2036205 49.03402955 52.55150193 50.3838962 53.90000343 51.73314285 C62.02102249 59.86355872 69.8140201 68.01752512 77 77 C69.74 84.26 62.48 91.52 55 99 C47.125 92.25 47.125 92.25 43.53344727 88.64697266 C42.7331459 87.84659576 41.93284454 87.04621887 41.10829163 86.22158813 C40.26946945 85.37760468 39.43064728 84.53362122 38.56640625 83.6640625 C37.68846909 82.78471039 36.81053192 81.90535828 35.9059906 80.99935913 C33.12245588 78.21025942 30.34243231 75.41768982 27.5625 72.625 C25.66783335 70.7247458 23.7724037 68.82525347 21.87695312 66.92578125 C17.24864839 62.28649396 12.62321579 57.64435833 8 53 C5.20429836 54.34727261 3.16032197 55.59706233 0.984375 57.8203125 C0.45585938 58.35527344 -0.07265625 58.89023438 -0.6171875 59.44140625 C-1.15601563 59.99699219 -1.69484375 60.55257812 -2.25 61.125 C-2.80429687 61.68832031 -3.35859375 62.25164062 -3.9296875 62.83203125 C-5.29104485 64.21686028 -6.64614859 65.60783204 -8 67 C-6.64095865 70.05171038 -5.12433343 72.1033729 -2.7277832 74.41992188 C-1.73214104 75.39112976 -1.73214104 75.39112976 -0.71638489 76.38195801 C-0.00173569 77.07059937 0.71291351 77.75924072 1.44921875 78.46875 C2.95159223 79.94097741 4.45353249 81.41364702 5.95507812 82.88671875 C8.32705099 85.20275003 10.70268244 87.51467713 13.08618164 89.81884766 C15.38490778 92.04531661 17.66793018 94.28693708 19.94921875 96.53125 C20.66994064 97.21989136 21.39066254 97.90853271 22.13322449 98.61804199 C22.78752945 99.26551392 23.44183441 99.91298584 24.1159668 100.58007812 C24.69839645 101.14537231 25.28082611 101.7106665 25.88090515 102.29309082 C27 104 27 104 26.79812622 106.06962585 C24.7768002 110.958471 19.87078177 114.63945668 16.1875 118.3125 C15.27162109 119.25673828 14.35574219 120.20097656 13.41210938 121.17382812 C12.52716797 122.06134766 11.64222656 122.94886719 10.73046875 123.86328125 C9.91989014 124.68094971 9.10931152 125.49861816 8.27416992 126.34106445 C6 128 6 128 4.08131409 127.80584717 C1.59001583 126.84126155 0.30148225 125.66306601 -1.57519531 123.76538086 C-2.25559875 123.08475082 -2.9360022 122.40412079 -3.63702393 121.7028656 C-4.36008728 120.96431839 -5.08315063 120.22577118 -5.828125 119.46484375 C-6.57713074 118.71159317 -7.32613647 117.95834259 -8.09783936 117.18226624 C-10.48902044 114.77428956 -12.86956165 112.35609255 -15.25 109.9375 C-16.86910177 108.30335262 -18.48888532 106.66988045 -20.109375 105.03710938 C-24.08086182 101.03254154 -28.0436621 97.01953193 -32 93 C-35.71123441 96.15762306 -39.41013317 99.31393023 -42.96484375 102.6484375 C-43.94614258 103.56689453 -43.94614258 103.56689453 -44.94726562 104.50390625 C-45.93243164 105.43009766 -45.93243164 105.43009766 -46.9375 106.375 C-47.62134766 107.01566406 -48.30519531 107.65632813 -49.00976562 108.31640625 C-50.67441797 109.87629027 -52.3378019 111.43750173 -54 113 C-52.50469676 116.48972003 -50.50808338 118.73465395 -47.82568359 121.40136719 C-46.96494232 122.2619574 -46.10420105 123.12254761 -45.21737671 124.00921631 C-44.28712677 124.92914368 -43.35687683 125.84907104 -42.3984375 126.796875 C-41.43678914 127.75479097 -40.47558306 128.71315114 -39.51480103 129.67193604 C-36.99076718 132.18835125 -34.46078409 134.69870107 -31.92950439 137.20782471 C-29.3452081 139.77162441 -26.76659801 142.34112918 -24.1875 144.91015625 C-19.13054303 149.94569457 -14.06727744 154.9748456 -9 160 C-10.69854037 163.62083128 -12.71104782 165.94255354 -15.5703125 168.765625 C-16.46621094 169.65507812 -17.36210938 170.54453125 -18.28515625 171.4609375 C-19.22230469 172.38132812 -20.15945313 173.30171875 -21.125 174.25 C-22.07988637 175.19484856 -23.03431859 176.14015633 -23.98828125 177.0859375 C-26.32109087 179.39518338 -28.65844086 181.69963203 -31 184 C-35.17258919 182.36312397 -37.96425073 179.30669032 -41.05078125 176.1796875 C-41.62781296 175.60219757 -42.20484467 175.02470764 -42.79936218 174.42971802 C-44.01957662 173.20648633 -45.23736351 171.98082895 -46.45288086 170.75292969 C-48.2904276 168.89728973 -50.13568538 167.04961463 -51.98242188 165.203125 C-53.17234452 164.0082799 -54.36181182 162.81298113 -55.55078125 161.6171875 C-56.09269608 161.07415985 -56.6346109 160.5311322 -57.19294739 159.97164917 C-60.01559721 157.11483623 -62.72008876 154.19843408 -65.34082031 151.15478516 C-69.35186195 146.52707762 -73.65330054 142.22085164 -77.99609375 137.90625 C-79.24641136 136.65805481 -79.24641136 136.65805481 -80.52198792 135.38464355 C-83.15813262 132.75405065 -85.79775105 130.12697559 -88.4375 127.5 C-90.23655979 125.70596145 -92.0353902 123.91169285 -93.83398438 122.1171875 C-98.22000812 117.74212875 -102.60888142 113.36994488 -107 109 C-105.49665672 105.48431055 -103.46992736 103.22298243 -100.77328491 100.53277588 C-99.44393166 99.19929863 -99.44393166 99.19929863 -98.08772278 97.83888245 C-97.10333337 96.86157074 -96.11884835 95.88435533 -95.13427734 94.90722656 C-94.09908313 93.87259661 -93.06432935 92.83752583 -92.02998352 91.80204773 C-89.22266888 88.99415918 -86.40922972 86.19248057 -83.59465742 83.39186954 C-80.65357681 80.46328989 -77.7181575 77.52904698 -74.78213501 74.59539795 C-69.22235189 69.04183146 -63.6574901 63.49338298 -58.09078944 57.94675136 C-51.75318508 51.63150029 -45.42125757 45.31057049 -39.0898025 38.98915529 C-26.06617865 25.98643758 -13.03543639 12.99087488 0 0 Z " fill="#000000" transform="translate(739,138)"/>
<path d="M0 0 C3.99353108 1.82063487 6.45396 4.43167813 9.3125 7.6875 C10.2826132 8.770644 11.25396672 9.8526784 12.2265625 10.93359375 C12.69739258 11.45808105 13.16822266 11.98256836 13.65332031 12.52294922 C16.32895924 15.45761483 19.16131983 18.22440161 22 21 C20.39822218 24.98087165 17.61769406 27.65493174 14.6171875 30.61328125 C14.08408966 31.14592087 13.55099182 31.67856049 13.0017395 32.2273407 C11.87266483 33.35339921 10.74116559 34.4770312 9.60742188 35.59838867 C7.89664129 37.29108744 6.19382508 38.99147489 4.4921875 40.69335938 C-0.64437249 45.81274606 -5.8063256 50.83161704 -11.32373047 55.54418945 C-13.83925252 57.72887602 -16.16036598 60.06537106 -18.5 62.4375 C-19.3559375 63.30246094 -20.211875 64.16742188 -21.09375 65.05859375 C-21.7228125 65.69925781 -22.351875 66.33992188 -23 67 C-17.72898586 73.41069287 -11.90871848 79.18590512 -6 85 C-2.28731906 83.45872649 -0.01884302 81.19156766 2.75 78.3125 C5.6639149 75.29048826 8.62722847 72.42911674 11.8125 69.69921875 C14.73013074 67.17704173 17.46601393 64.55987373 20.140625 61.78125 C20.81867188 61.07742188 21.49671875 60.37359375 22.1953125 59.6484375 C23.588196 58.19200038 24.97340343 56.72819039 26.3515625 55.2578125 C27.02445312 54.56429687 27.69734375 53.87078125 28.390625 53.15625 C28.98907227 52.52525391 29.58751953 51.89425781 30.20410156 51.24414062 C32 50 32 50 34.02294922 50.12280273 C36.23814588 51.1056629 37.53557529 52.16264775 39.2421875 53.87890625 C39.83386719 54.47123047 40.42554688 55.06355469 41.03515625 55.67382812 C41.64230469 56.29708984 42.24945313 56.92035156 42.875 57.5625 C43.47441406 58.15869141 44.07382813 58.75488281 44.69140625 59.36914062 C48.89424178 63.62211844 52.5289751 68.13497959 56 73 C53.50434749 75.52516805 51.00267549 78.04429373 48.5 80.5625 C47.80390625 81.26697266 47.1078125 81.97144531 46.390625 82.69726562 C42.36667052 86.73984953 38.24514833 90.57947463 33.92382812 94.30102539 C30.81501568 97.04648552 27.90953244 99.98388374 25 102.9375 C24.41605469 103.52595703 23.83210938 104.11441406 23.23046875 104.72070312 C21.81795195 106.14479793 20.4086219 107.5720525 19 109 C20.48653506 112.46629835 22.45722351 114.69022036 25.1328125 117.328125 C25.93847656 118.12734375 26.74414062 118.9265625 27.57421875 119.75 C28.41597656 120.575 29.25773437 121.4 30.125 122.25 C30.97449219 123.09046875 31.82398438 123.9309375 32.69921875 124.796875 C34.79504923 126.86915683 36.89540713 128.93662393 39 131 C43.18167326 129.36743754 45.94467643 126.2913425 49.015625 123.14453125 C49.59028503 122.56466965 50.16494507 121.98480804 50.75701904 121.38737488 C52.59284019 119.5337814 54.42185415 117.6736614 56.25 115.8125 C58.64761851 113.3781082 61.04842817 110.94693153 63.453125 108.51953125 C64.02994019 107.93717209 64.60675537 107.35481293 65.2010498 106.75480652 C68.80331056 103.13997022 72.49276686 99.68824998 76.38574219 96.38500977 C78.70823287 94.39234648 80.8539292 92.24210315 83 90.0625 C83.763125 89.29035156 84.52625 88.51820313 85.3125 87.72265625 C85.869375 87.15417969 86.42625 86.58570313 87 86 C90.65075814 87.50132301 92.63276273 89.58895335 95.1875 92.5625 C99.59334216 97.59042951 104.22368908 102.32531271 109 107 C107.66420352 109.97636205 106.20765397 112.03951858 103.875 114.3125 C103.33617187 114.84488281 102.79734375 115.37726563 102.2421875 115.92578125 C100.30854224 117.71457156 98.33860898 119.43349012 96.34228516 121.15112305 C92.14427152 124.82037698 88.19752329 128.69039449 84.28125 132.65625 C83.57907349 133.36221313 82.87689697 134.06817627 82.15344238 134.79553223 C79.93315397 137.02791358 77.71616045 139.26352111 75.5 141.5 C72.57590521 144.45090378 69.64836943 147.39833203 66.71875 150.34375 C65.735578 151.33936951 65.735578 151.33936951 64.73254395 152.35510254 C60.88645166 156.22122528 56.91948967 159.87330412 52.7911377 163.4359436 C50.60715429 165.34304054 48.54194956 167.34444146 46.5 169.40234375 C45.75878906 170.14677734 45.01757812 170.89121094 44.25390625 171.65820312 C43.51011719 172.41037109 42.76632813 173.16253906 42 173.9375 C41.22527344 174.71673828 40.45054687 175.49597656 39.65234375 176.29882812 C37.76589243 178.1969242 35.88183755 180.09733149 34 182 C30.48431055 180.49665672 28.22298243 178.46992736 25.53277588 175.77328491 C24.19929863 174.44393166 24.19929863 174.44393166 22.83888245 173.08772278 C21.86157074 172.10333337 20.88435533 171.11884835 19.90722656 170.13427734 C18.87259661 169.09908313 17.83752583 168.06432935 16.80204773 167.02998352 C13.99415918 164.22266888 11.19248057 161.40922972 8.39186954 158.59465742 C5.46328989 155.65357681 2.52904698 152.7181575 -0.40460205 149.78213501 C-5.95816854 144.22235189 -11.50661702 138.6574901 -17.05324864 133.09078944 C-23.36849971 126.75318508 -29.68942951 120.42125757 -36.01084471 114.0898025 C-49.01356242 101.06617865 -62.00912512 88.03543639 -75 75 C-68.77091249 67.64638094 -68.77091249 67.64638094 -65.41650391 64.28710938 C-64.78209381 63.64954712 -64.14768372 63.01198486 -63.49404907 62.35510254 C-62.8282785 61.6913562 -62.16250793 61.02760986 -61.4765625 60.34375 C-60.77155609 59.63778687 -60.06654968 58.93182373 -59.34017944 58.20446777 C-57.85724622 56.72085798 -56.37306518 55.23849448 -54.88769531 53.75732422 C-52.63492295 51.5098994 -50.38752763 49.25719771 -48.140625 47.00390625 C-46.69042458 45.55436687 -45.23991388 44.10513783 -43.7890625 42.65625 C-43.12734039 41.99250366 -42.46561829 41.32875732 -41.78384399 40.64489746 C-37.95920654 36.8390763 -34.01854919 33.23867473 -29.93637085 29.71176147 C-26.86365524 26.99546557 -23.97970781 24.1034423 -21.09375 21.19140625 C-20.17849548 20.27402931 -20.17849548 20.27402931 -19.24475098 19.33811951 C-17.32743835 17.41528198 -15.41366298 15.48896906 -13.5 13.5625 C-12.18773415 12.24520941 -10.87523605 10.92815014 -9.5625 9.61132812 C-6.37231494 6.4102139 -3.18529349 3.20598135 0 0 Z " fill="#000000" transform="translate(163,428)"/>
<path d="M0 0 C2 1 2 1 2.61532593 2.65240765 C2.78786896 3.37375299 2.96041199 4.09509832 3.13818359 4.83830261 C3.3399823 5.66400757 3.54178101 6.48971252 3.74969482 7.34043884 C3.96377991 8.25314041 4.17786499 9.16584198 4.3984375 10.10620117 C4.62960266 11.06231293 4.86076782 12.01842468 5.09893799 13.00350952 C5.86534462 16.18152772 6.62006511 19.36220775 7.375 22.54296875 C7.9046392 24.7469619 8.43508585 26.95076116 8.96630859 29.15437317 C10.36675494 34.971746 11.7576858 40.79135099 13.14624023 46.61157227 C15.36654885 55.91121774 17.60109367 65.20745139 19.83575439 74.50365639 C20.61525033 77.75233536 21.39070349 81.00195872 22.16552734 84.25175476 C22.64412498 86.25013124 23.1227993 88.24848935 23.6015625 90.24682617 C23.81564758 91.14940659 24.02973267 92.051987 24.25030518 92.98191833 C26.25711282 102.31939037 26.25711282 102.31939037 31.57592773 110.01416016 C32.30686142 110.74156403 33.0377951 111.4689679 33.7908783 112.21841431 C34.5804744 112.98422821 35.3700705 113.75004211 36.18359375 114.5390625 C37.40055687 115.74397842 37.40055687 115.74397842 38.6421051 116.97323608 C41.23127575 119.53345512 43.83371445 122.07965352 46.4375 124.625 C49.03507812 127.1800264 51.62981374 129.73787654 54.22218323 132.29818726 C55.83457931 133.88894292 57.4504556 135.47618054 59.07017517 137.05947876 C59.80426102 137.78057831 60.53834686 138.50167786 61.29467773 139.24462891 C61.93928452 139.87495026 62.5838913 140.50527161 63.24803162 141.1546936 C65.00446091 143.00469857 66.51260576 144.92995489 68 147 C66.37843976 151.10108886 63.4232297 153.83148167 60.3359375 156.859375 C59.78386627 157.40861633 59.23179504 157.95785767 58.66299438 158.52374268 C56.90498185 160.27059293 55.1401311 162.01034601 53.375 163.75 C52.1792292 164.93573591 50.98391135 166.1219288 49.7890625 167.30859375 C46.86459747 170.21105085 43.93398126 173.1071641 41 176 C37.64955203 174.56459816 35.67708965 172.81846984 33.26171875 170.10791016 C32.53581039 169.30555435 31.80990204 168.50319855 31.06199646 167.67652893 C30.27841263 166.80616501 29.4948288 165.93580109 28.6875 165.0390625 C2.38267304 136.48938234 2.38267304 136.48938234 -32.87051392 121.95147705 C-40.85811529 120.17711017 -48.59560252 117.68237554 -56.36328125 115.13671875 C-57.03596983 114.916476 -57.70865841 114.69623325 -58.40173149 114.46931648 C-61.13390608 113.57364574 -63.86539232 112.67592771 -66.59578991 111.77485371 C-73.83675883 109.3855733 -81.09731727 107.05860642 -88.359375 104.734375 C-90.62471813 104.00762303 -92.89002211 103.28074902 -95.15527344 102.55371094 C-96.77016982 102.03576842 -98.38507338 101.51784824 -100 101 C-100 96.5372411 -97.0631177 94.55653059 -94.0859375 91.546875 C-93.47867828 90.92725891 -92.87141907 90.30764282 -92.24575806 89.66925049 C-90.95683359 88.36074027 -89.66368702 87.0563777 -88.36669922 85.75585938 C-86.38588794 83.76096535 -84.43326568 81.7410257 -82.48046875 79.71875 C-81.22560714 78.4514902 -79.96914729 77.1858106 -78.7109375 75.921875 C-77.83869034 75.00955109 -77.83869034 75.00955109 -76.94882202 74.07879639 C-72.83515882 70.03236417 -72.83515882 70.03236417 -69.25317383 69.89355469 C-68.17962646 70.25868164 -67.1060791 70.62380859 -66 71 C-64.8545874 71.37895416 -64.8545874 71.37895416 -63.68603516 71.76556396 C-60.85229308 72.72588183 -58.04612375 73.7477182 -55.23828125 74.78125 C-54.21067184 75.15479614 -53.18306244 75.52834229 -52.12431335 75.91320801 C-48.85191014 77.10393592 -45.58217409 78.30180093 -42.3125 79.5 C-40.10108836 80.30647484 -37.88950165 81.11246978 -35.67773438 81.91796875 C-32.56847984 83.05039693 -29.45950951 84.18354603 -26.35188293 85.32043457 C-25.43050034 85.65748413 -24.50911774 85.99453369 -23.55981445 86.34179688 C-22.74962357 86.63856323 -21.93943268 86.93532959 -21.10469055 87.24108887 C-19.41164981 87.85156696 -17.70738496 88.43087168 -16 89 C-16.18792114 88.34933563 -16.37584229 87.69867126 -16.56945801 87.02828979 C-18.52541133 80.25009101 -20.47024977 73.46877393 -22.40869141 66.68554688 C-23.13338766 64.15510859 -23.86090526 61.62547654 -24.59130859 59.09667969 C-25.64124075 55.45977183 -26.68096178 51.82007654 -27.71875 48.1796875 C-28.21091003 46.48717361 -28.21091003 46.48717361 -28.7130127 44.76046753 C-29.01332397 43.69982086 -29.31363525 42.63917419 -29.62304688 41.54638672 C-29.88952026 40.61817108 -30.15599365 39.68995544 -30.43054199 38.73361206 C-31.05669106 35.72786166 -31.18735384 33.06224645 -31 30 C-29.66162109 28.07226562 -29.66162109 28.07226562 -27.7734375 26.40625 C-27.07726318 25.77460938 -26.38108887 25.14296875 -25.66381836 24.4921875 C-24.9085083 23.83476562 -24.15319824 23.17734375 -23.375 22.5 C-21.81976203 21.09579909 -20.26640948 19.68950747 -18.71484375 18.28125 C-17.92835449 17.57355469 -17.14186523 16.86585937 -16.33154297 16.13671875 C-12.75982683 12.86345596 -9.34336204 9.444311 -5.9375 6 C-5.03620361 5.09217773 -5.03620361 5.09217773 -4.11669922 4.16601562 C-2.74212645 2.77965965 -1.37066737 1.3902173 0 0 Z " fill="#000000" transform="translate(488,111)"/>
<path d="M0 0 C4.12390399 1.8931784 6.93280604 4.67825368 10.078125 7.8828125 C10.64956238 8.45707977 11.22099976 9.03134705 11.80975342 9.62301636 C13.62792945 11.4523581 15.43901492 13.28854193 17.25 15.125 C18.48391329 16.36894774 19.71828322 17.6124427 20.953125 18.85546875 C23.97406743 21.89842367 26.98867092 24.94753254 30 28 C24.82349934 34.26498179 19.16364042 39.98259464 13.4140625 45.71875 C12.38790578 46.74558208 11.3618974 47.77256243 10.33602905 48.79968262 C8.1943889 50.94278946 6.05097062 53.08409718 3.90625 55.22412109 C1.1774831 57.94719861 -1.54677809 60.6747325 -4.26970482 63.40364838 C-6.38531686 65.52290012 -8.50333722 67.63973213 -10.62205887 69.75587463 C-11.62656357 70.75971909 -12.63034505 71.76428786 -13.63334274 72.76963806 C-18.71082439 77.85641445 -23.82317227 82.82292706 -29.27871704 87.50332642 C-31.67559835 89.58743985 -33.91825751 91.80587762 -36.15625 94.05859375 C-37.0328125 94.93837891 -37.909375 95.81816406 -38.8125 96.72460938 C-39.699375 97.61986328 -40.58625 98.51511719 -41.5 99.4375 C-42.4178125 100.35982422 -43.335625 101.28214844 -44.28125 102.23242188 C-46.52315055 104.48599899 -48.762666 106.74189075 -51 109 C-46.33072064 114.63478978 -41.30598356 119.75185214 -36.06640625 124.85546875 C-34.34902292 126.54562826 -32.63224321 128.2364013 -30.91601562 129.92773438 C-28.22658744 132.57370105 -25.53362219 135.215614 -22.83032227 137.84741211 C-20.21015723 140.40132173 -17.60590017 142.97056606 -15.00390625 145.54296875 C-14.18636368 146.33156784 -13.36882111 147.12016693 -12.52650452 147.93266296 C-11.78500656 148.67055557 -11.04350861 149.40844818 -10.27954102 150.16870117 C-9.62035172 150.81377121 -8.96116241 151.45884125 -8.28199768 152.12345886 C-7 154 -7 154 -7.1532135 156.07337952 C-8.50990395 159.16014061 -10.87823267 161.30479638 -13.2421875 163.640625 C-13.76636261 164.16767029 -14.29053772 164.69471558 -14.83059692 165.23773193 C-15.93822837 166.34740132 -17.04964328 167.45330531 -18.16455078 168.55566406 C-19.87242419 170.24744846 -21.56367956 171.95466778 -23.25390625 173.6640625 C-24.33237245 174.74054685 -25.41176858 175.81610052 -26.4921875 176.890625 C-26.99853729 177.40304749 -27.50488708 177.91546997 -28.02658081 178.44342041 C-31.65508864 182 -31.65508864 182 -35 182 C-36.29907227 180.7723999 -36.29907227 180.7723999 -37.75390625 178.92871094 C-41.22717688 174.78919396 -44.93607459 170.98131548 -48.77734375 167.18847656 C-49.41750427 166.55579235 -50.05766479 165.92310814 -50.71722412 165.27125168 C-52.08015748 163.92625642 -53.44391176 162.58209261 -54.80841064 161.23868561 C-57.71622487 158.37324905 -60.61446746 155.49821095 -63.5133667 152.62376022 C-68.89726303 147.28549738 -74.28508468 141.9513403 -79.68896484 136.63330078 C-83.46192552 132.91954692 -87.22271754 129.19385279 -90.97561646 125.45983124 C-92.40653233 124.04068374 -93.84197953 122.62609036 -95.2819519 121.21613312 C-97.28548977 119.2533672 -99.2731731 117.27579178 -101.2578125 115.29394531 C-102.15840645 114.4226725 -102.15840645 114.4226725 -103.07719421 113.53379822 C-104.69970703 111.89483643 -104.69970703 111.89483643 -107 109 C-106.56919501 105.82908549 -105.60214538 104.22891375 -103.35131836 101.99487305 C-102.79661362 101.43716721 -102.24190887 100.87946136 -101.6703949 100.30485535 C-101.06631302 99.71312027 -100.46223114 99.12138519 -99.83984375 98.51171875 C-98.9048983 97.57958305 -98.9048983 97.57958305 -97.95106506 96.62861633 C-96.62882752 95.31310086 -95.30299728 94.00118808 -93.97387695 92.69262695 C-91.96254611 90.71216175 -89.96180606 88.72150323 -87.96289062 86.72851562 C-86.67248927 85.4472977 -85.38149161 84.16668001 -84.08984375 82.88671875 C-83.49993149 82.30105637 -82.91001923 81.71539398 -82.30223083 81.11198425 C-79.35782976 78.21662954 -76.36390464 75.4238117 -73.23048401 72.73345947 C-69.24734981 69.26049898 -65.48257297 65.61782241 -61.7578125 61.87133789 C-61.08364792 61.19731934 -60.40948334 60.52330078 -59.71488953 59.82885742 C-57.51587724 57.62915569 -55.3204154 55.42594735 -53.125 53.22265625 C-51.58965616 51.68544478 -50.05408949 50.14845584 -48.51831055 48.61167908 C-44.49828606 44.58785654 -40.48127515 40.56103879 -36.46490479 36.53356934 C-32.35734099 32.41573282 -28.24690605 28.30076446 -24.13671875 24.18554688 C-16.08834852 16.12648721 -8.04316209 8.06425731 0 0 Z " fill="#000000" transform="translate(953,354)"/>
<path d="M0 0 C2.51491825 1.06988821 3.58384515 2.32082187 5.29740906 4.44194031 C8.88209899 8.72708142 12.70898642 12.65709782 16.68217468 16.58061218 C17.38813782 17.2827887 18.09410095 17.98496521 18.82145691 18.7084198 C21.05383826 20.92870821 23.2894458 23.14570173 25.52592468 25.36186218 C28.47682846 28.28595697 31.42425671 31.21349275 34.36967468 34.14311218 C35.03342102 34.79856018 35.69716736 35.45400818 36.38102722 36.12931824 C40.18606606 39.9146431 43.76742489 43.82058639 47.27388 47.88273621 C50.20980207 51.1991811 53.34722724 54.30609478 56.49076843 57.42436218 C57.16894119 58.10112 57.84711395 58.77787781 58.5458374 59.47514343 C60.68266773 61.60643893 62.82297291 63.73420436 64.96342468 65.86186218 C66.42524592 67.31865998 67.88683656 68.7756892 69.34819031 70.23295593 C72.90477869 73.77860191 76.46448485 77.32108957 80.02592468 80.86186218 C83.95813047 79.5312608 86.31856657 77.93136276 89.21781921 74.97880554 C90.00858856 74.18135422 90.79935791 73.38390289 91.61408997 72.56228638 C92.45382355 71.70079483 93.29355713 70.83930328 94.15873718 69.95170593 C95.46921524 68.62774559 95.46921524 68.62774559 96.8061676 67.27703857 C99.12168118 64.93659905 101.43108898 62.59037165 103.73686218 60.24034119 C106.99079267 56.92447253 110.25030596 53.61417087 113.5171051 50.31097412 C115.25506615 48.55318617 116.98806832 46.79047903 118.71565247 45.02249146 C119.50011749 44.22819229 120.28458252 43.43389313 121.09281921 42.61552429 C122.12609848 41.56201027 122.12609848 41.56201027 123.18025208 40.48721313 C125.02592468 38.86186218 125.02592468 38.86186218 128.02592468 37.86186218 C130.90517415 40.7117684 133.7785272 43.56755135 136.65092468 46.42436218 C137.45916687 47.22422546 138.26740906 48.02408875 139.10014343 48.84819031 C143.63144029 53.36106726 147.94249972 57.93928678 152.02592468 62.86186218 C150.46656835 66.6024803 148.1553779 68.97651855 145.29936218 71.81889343 C144.83285248 72.28494492 144.36634277 72.7509964 143.88569641 73.23117065 C142.89785728 74.21599563 141.90759573 75.19839599 140.91508484 76.17851257 C139.42159421 77.65394261 137.93606718 79.13701958 136.45170593 80.62162781 C132.4499515 84.60300451 128.43815037 88.52835145 124.16313171 92.21806335 C120.02627455 95.81129955 116.15593941 99.62061994 112.30717468 103.51811218 C111.60499817 104.22407532 110.90282166 104.93003845 110.17936707 105.65739441 C107.95907865 107.88977576 105.74208514 110.1253833 103.52592468 112.36186218 C100.60182989 115.31276596 97.67429412 118.26019421 94.74467468 121.20561218 C93.76150269 122.20123169 93.76150269 122.20123169 92.75846863 123.21696472 C88.35405213 127.64431943 83.77569614 131.80771481 79.02592468 135.86186218 C75.33347003 134.13254206 72.95853893 132.03881287 70.06889343 129.13529968 C69.60284195 128.66878998 69.13679047 128.20228027 68.65661621 127.72163391 C67.67179123 126.73379478 66.68939087 125.74353323 65.70927429 124.75102234 C64.23384426 123.25753171 62.75076729 121.77200468 61.26615906 120.28764343 C57.28478235 116.285889 53.35943542 112.27408787 49.66972351 107.99906921 C46.07648732 103.86221205 42.26716693 99.99187691 38.36967468 96.14311218 C37.66371155 95.44093567 36.95774841 94.73875916 36.23039246 94.01530457 C33.9980111 91.79501615 31.76240357 89.57802264 29.52592468 87.36186218 C26.5750209 84.43776739 23.62759265 81.51023162 20.68217468 78.58061218 C20.01842834 77.92516418 19.35468201 77.26971619 18.67082214 76.59440613 C15.50542175 73.44540573 12.45487563 70.25314495 9.53910828 66.87065125 C5.94248722 62.70402687 2.09081951 58.85062181 -1.84126282 55.00248718 C-3.31810599 53.54313574 -4.79466033 52.08349197 -6.27095032 50.62358093 C-8.57211874 48.35352273 -10.87555399 46.08590954 -13.18403625 43.82328796 C-15.43065297 41.61887236 -17.66782084 39.4052222 -19.90376282 37.18998718 C-20.59847687 36.51389404 -21.29319092 35.8378009 -22.00895691 35.14122009 C-22.96598007 34.18937836 -22.96598007 34.18937836 -23.94233704 33.2183075 C-24.50524445 32.66507813 -25.06815186 32.11184875 -25.64811707 31.54185486 C-27.18094976 29.5997517 -27.75815886 28.32744508 -27.97407532 25.86186218 C-26.23044393 23.60772111 -24.54389725 21.73121705 -22.52485657 19.74858093 C-21.95583115 19.17477188 -21.38680573 18.60096283 -20.80053711 18.00976562 C-19.59345133 16.79927557 -18.38002103 15.59508433 -17.1608429 14.39677429 C-15.29359218 12.55627851 -13.45447693 10.69067501 -11.61665344 8.82084656 C-10.44182101 7.64931812 -9.2654385 6.47934164 -8.08735657 5.31108093 C-7.53614639 4.7497496 -6.98493622 4.18841827 -6.41702271 3.6100769 C-2.5135304 -0.1758867 -2.5135304 -0.1758867 0 0 Z " fill="#000000" transform="translate(27.974075317382813,562.1381378173828)"/>
<path d="M0 0 C4.03070124 1.85723377 6.78284024 4.52717467 9.859375 7.6640625 C10.683237 8.49216934 10.683237 8.49216934 11.52374268 9.33700562 C13.27059293 11.09501815 15.01034601 12.8598689 16.75 14.625 C17.93573591 15.8207708 19.1219288 17.01608865 20.30859375 18.2109375 C23.21105085 21.13540253 26.1071641 24.06601874 29 27 C24.00929261 33.01306995 18.62158537 38.54567336 13.11083984 44.08203125 C12.12121165 45.07957689 11.13176037 46.07729808 10.14247131 47.07518005 C6.91899527 50.32464173 3.69027241 53.56886239 0.4609375 56.8125 C-0.65401167 57.93281468 -1.76895483 59.05313535 -2.88389206 60.17346191 C-7.51768562 64.82883136 -12.15289525 69.48278312 -16.79183388 74.13302612 C-23.43074981 80.78823313 -30.06098523 87.45183103 -36.67961848 94.12721157 C-41.3428046 98.82901284 -46.01545664 103.52127035 -50.69533956 108.20645237 C-53.48837448 111.00314637 -56.27704124 113.80389788 -59.05568314 116.61489868 C-61.66325528 119.25241039 -64.2822948 121.87795359 -66.91078377 124.49461555 C-68.33539911 125.91890308 -69.74756139 127.35561215 -71.15937805 128.79258728 C-72.00603531 129.63092606 -72.85269257 130.46926483 -73.7250061 131.33300781 C-74.45833475 132.06964661 -75.1916634 132.8062854 -75.94721413 133.56524658 C-78 135 -78 135 -80.09438133 134.87574768 C-83.23467683 133.4325909 -85.48131066 130.98652109 -87.89453125 128.57421875 C-88.44614426 128.03021927 -88.99775726 127.48621979 -89.56608582 126.92573547 C-90.72719468 125.77541527 -91.8843688 124.62111163 -93.0378418 123.46313477 C-94.80981753 121.69018394 -96.60205648 119.93964091 -98.39648438 118.18945312 C-99.52213143 117.06901095 -100.64652499 115.94730774 -101.76953125 114.82421875 C-102.57871758 114.03962532 -102.57871758 114.03962532 -103.4042511 113.23918152 C-104.88208008 111.7331543 -104.88208008 111.7331543 -107 109 C-106.74799565 105.22807755 -104.75563583 103.3860334 -102.15795898 100.80151367 C-101.34298447 99.98353806 -100.52800995 99.16556244 -99.68833923 98.32279968 C-98.79989822 97.44670547 -97.91145721 96.57061127 -96.99609375 95.66796875 C-96.0842482 94.75799637 -95.17240265 93.84802399 -94.23292542 92.91047668 C-92.29969637 90.98185015 -90.36166698 89.05823252 -88.41967773 87.13842773 C-85.95087473 84.69770801 -83.49064136 82.24858394 -81.0335989 79.796031 C-78.67005568 77.43769369 -76.30187256 75.08405106 -73.93359375 72.73046875 C-73.05932236 71.86044724 -72.18505096 70.99042572 -71.2842865 70.09403992 C-67.67069882 66.52192901 -64.05957003 62.99913783 -60.19360352 59.70019531 C-54.14216465 54.48773049 -48.60025148 48.72296654 -42.96875 43.06640625 C-41.72486987 41.82065756 -40.48076619 40.57513205 -39.2364502 39.32981873 C-35.98580985 36.07538764 -32.73818572 32.81796319 -29.49121094 29.55987549 C-26.16785548 26.22623132 -22.8416142 22.89546923 -19.515625 19.56445312 C-13.00761191 13.04576354 -6.50278617 6.52390347 0 0 Z " fill="#000000" transform="translate(1046,448)"/>
</svg>
