<?xml version="1.0" standalone="no"?>
<!DOCTYPE svg PUBLIC "-//W3C//DTD SVG 20010904//EN"
 "http://www.w3.org/TR/2001/REC-SVG-20010904/DTD/svg10.dtd">
<svg version="1.0" xmlns="http://www.w3.org/2000/svg"
 width="960.000000pt" height="242.000000pt" viewBox="0 0 960.000000 242.000000"
 preserveAspectRatio="xMidYMid meet">

<g transform="translate(0.000000,242.000000) scale(0.100000,-0.100000)"
fill="#000000" stroke="none">
<path d="M8933 2143 l-33 -4 0 -684 0 -684 48 -7 c60 -10 280 -10 310 0 l22 7
0 683 0 683 -52 7 c-56 6 -240 6 -295 -1z"/>
<path d="M660 1779 c-127 -20 -273 -69 -364 -123 l-46 -27 0 -428 0 -428 31
-7 c40 -8 263 -8 312 0 l37 7 0 353 0 353 57 17 c68 20 194 23 244 6 48 -17
99 -71 110 -118 4 -22 9 -168 9 -325 l0 -287 23 -6 c29 -8 276 -8 316 0 l31 6
2 347 3 346 60 24 c46 18 79 24 140 24 93 0 149 -22 187 -75 23 -33 23 -36 26
-349 l3 -317 31 -6 c40 -8 277 -8 317 0 l32 7 -3 361 -3 361 -28 56 c-82 168
-271 247 -562 236 -143 -5 -229 -23 -324 -65 l-43 -20 -63 29 c-34 16 -97 36
-139 44 -85 16 -305 18 -396 4z"/>
<path d="M2845 1779 c-97 -12 -238 -54 -315 -93 -61 -31 -65 -35 -63 -66 2
-42 47 -106 100 -144 l42 -29 58 26 c86 38 176 57 279 57 165 0 242 -42 252
-138 l4 -49 -88 14 c-111 18 -333 12 -417 -11 -189 -52 -276 -144 -277 -292 0
-211 175 -313 542 -315 84 0 178 3 208 6 98 12 269 45 336 66 l65 20 -3 322
-3 322 -33 67 c-68 139 -198 212 -417 238 -103 11 -171 11 -270 -1z m333 -614
c21 -7 22 -13 22 -100 0 -109 8 -103 -145 -112 -126 -7 -200 11 -240 59 -22
27 -26 39 -22 71 11 79 63 99 237 93 69 -2 135 -8 148 -11z"/>
<path d="M5605 1784 c-179 -41 -274 -85 -361 -166 -161 -151 -200 -388 -98
-591 58 -114 203 -219 364 -264 93 -26 387 -26 480 0 165 46 314 155 374 274
152 301 -15 629 -369 728 -58 16 -342 30 -390 19z m141 -189 c60 -18 116 -62
138 -110 15 -32 21 -35 59 -35 86 -1 167 -63 167 -130 0 -20 9 -29 50 -48 52
-24 80 -61 80 -104 0 -39 -38 -88 -83 -108 -39 -18 -68 -20 -375 -20 -208 0
-349 4 -376 11 -160 40 -180 224 -32 285 42 18 43 19 38 59 -8 79 56 164 150
196 65 22 119 24 184 4z"/>
<path d="M6970 1775 c-95 -16 -187 -47 -272 -92 l-68 -35 0 -438 0 -438 23 -6
c29 -8 276 -8 316 0 l31 7 0 353 0 354 28 12 c16 7 85 13 170 14 118 1 145 4
161 18 31 28 71 130 74 188 l2 53 -65 11 c-87 16 -307 15 -400 -1z"/>
<path d="M7925 1779 c-155 -20 -385 -107 -385 -147 0 -32 64 -124 107 -155
l42 -30 59 26 c96 43 184 59 302 55 161 -5 230 -49 230 -145 l0 -39 -72 12
c-99 18 -275 17 -377 -1 -162 -28 -289 -113 -319 -213 -51 -170 42 -312 243
-371 191 -56 568 -38 833 40 l72 22 0 276 c0 367 -11 420 -108 524 -115 122
-360 179 -627 146z m333 -614 c21 -7 22 -13 22 -101 l0 -93 -37 -8 c-21 -4
-90 -8 -153 -8 -126 1 -160 11 -199 61 -44 55 -13 130 63 154 33 10 266 6 304
-5z"/>
<path d="M3825 1759 c-55 -5 -106 -11 -114 -14 -18 -7 -10 -46 41 -198 93
-280 203 -493 366 -707 l34 -45 -65 -60 c-54 -51 -208 -168 -255 -194 -31 -18
59 -143 132 -185 73 -42 75 -42 177 25 430 283 698 672 817 1189 34 147 36
167 15 174 -41 12 -241 25 -304 20 l-67 -7 -16 -86 c-29 -150 -56 -258 -87
-353 -31 -94 -113 -278 -123 -278 -9 0 -92 169 -127 258 -56 140 -129 383
-129 430 0 12 -4 23 -8 26 -18 11 -192 14 -287 5z"/>
</g>
</svg>
