<?xml version="1.0" standalone="no"?>
<!DOCTYPE svg PUBLIC "-//W3C//DTD SVG 20010904//EN"
 "http://www.w3.org/TR/2001/REC-SVG-20010904/DTD/svg10.dtd">
<svg version="1.0" xmlns="http://www.w3.org/2000/svg"
 width="512.000000pt" height="512.000000pt" viewBox="0 0 512.000000 512.000000"
 preserveAspectRatio="xMidYMid meet">

<g transform="translate(0.000000,512.000000) scale(0.100000,-0.100000)"
fill="#000000" stroke="none">
<path d="M1403 3496 c-4 -8 -22 -29 -38 -48 -17 -18 -86 -98 -155 -178 -69
-80 -127 -147 -130 -150 -3 -3 -70 -81 -150 -175 -80 -93 -147 -172 -150 -175
-3 -3 -32 -36 -65 -75 -33 -38 -62 -72 -65 -75 -3 -3 -41 -47 -84 -98 l-78
-93 78 -92 c44 -51 91 -105 105 -122 36 -42 178 -204 210 -240 70 -79 449
-517 487 -563 l44 -52 1148 0 1148 0 184 212 c346 400 662 766 726 840 12 14
12 19 1 31 -8 7 -113 130 -234 272 -121 142 -251 295 -290 340 -253 294 -311
361 -322 373 -7 8 -25 29 -39 48 l-26 34 -1149 0 c-978 0 -1149 -2 -1156 -14z
m2274 -110 c17 -23 345 -408 368 -432 5 -6 19 -22 30 -35 34 -41 205 -241 260
-304 114 -131 156 -187 152 -199 -3 -7 -72 -89 -153 -182 -82 -94 -192 -220
-244 -281 -52 -60 -171 -198 -265 -306 l-170 -197 -1093 0 -1094 0 -42 48
c-24 26 -105 119 -181 207 -75 88 -154 178 -174 201 -20 23 -88 101 -151 175
-63 73 -154 178 -202 232 -49 55 -88 105 -88 112 0 6 48 67 106 136 165 193
265 308 314 364 25 28 128 148 230 268 l185 217 1097 0 1096 0 19 -24z"/>
<path d="M2940 2507 l0 -444 30 2 c17 1 46 2 65 3 l35 2 0 244 0 245 27 21
c34 26 86 22 117 -10 20 -19 21 -35 26 -263 l5 -242 25 1 c14 1 42 2 63 2 l37
2 0 219 c0 292 -10 340 -83 395 -39 29 -131 33 -179 8 l-38 -20 0 139 0 139
-65 0 -65 0 0 -443z"/>
<path d="M1360 2505 l0 -435 65 0 65 0 0 201 0 201 55 -4 c65 -5 100 -33 114
-87 5 -20 12 -94 16 -166 3 -71 10 -134 15 -140 4 -5 33 -8 64 -7 l56 4 0 40
c0 72 -21 282 -31 316 -6 18 -22 46 -36 63 l-26 30 21 22 c41 45 54 88 54 168
0 89 -22 143 -74 182 -49 37 -99 47 -235 47 l-123 0 0 -435z m287 290 c22 -25
25 -36 21 -92 -6 -90 -27 -116 -104 -124 -32 -3 -62 -4 -66 -2 -5 2 -8 61 -8
130 l0 125 66 -4 c58 -4 70 -8 91 -33z"/>
<path d="M2030 2699 c-43 -17 -89 -71 -111 -128 -17 -46 -21 -79 -21 -191 -1
-152 10 -201 55 -256 102 -124 305 -82 356 74 21 64 25 238 7 321 -20 94 -51
142 -110 169 -49 24 -132 28 -176 11z m139 -118 c25 -25 35 -118 29 -257 -4
-85 -9 -110 -25 -132 -35 -47 -113 -39 -133 13 -14 38 -21 207 -11 286 6 42
16 78 27 90 23 26 87 26 113 0z"/>
<path d="M2560 2699 c-52 -21 -89 -59 -111 -116 -21 -51 -23 -75 -23 -208 -1
-131 2 -156 20 -196 26 -55 55 -85 109 -110 129 -60 266 20 290 169 l7 42 -65
0 -64 0 -6 -41 c-8 -58 -32 -81 -80 -77 -30 2 -45 10 -61 31 -18 25 -21 45
-24 155 -4 143 9 227 38 242 31 17 85 12 105 -10 9 -10 20 -40 22 -65 l6 -45
64 0 65 0 -7 47 c-18 120 -98 194 -207 192 -29 0 -64 -5 -78 -10z"/>
<path d="M3595 2696 c-72 -33 -107 -93 -126 -216 -12 -77 -6 -201 13 -276 20
-83 107 -153 188 -154 112 0 191 72 214 198 l6 32 -65 0 c-63 0 -65 -1 -65
-25 0 -64 -48 -105 -105 -91 -36 9 -52 42 -60 119 l-7 67 151 0 151 0 0 68 c0
182 -71 283 -204 289 -37 2 -73 -2 -91 -11z m140 -116 c11 -12 20 -41 23 -73
l4 -52 -87 3 -87 4 6 30 c3 17 6 39 6 49 0 53 97 81 135 39z"/>
</g>
</svg>
