<?xml version="1.0" standalone="no"?>
<!DOCTYPE svg PUBLIC "-//W3C//DTD SVG 20010904//EN"
 "http://www.w3.org/TR/2001/REC-SVG-20010904/DTD/svg10.dtd">
<svg version="1.0" xmlns="http://www.w3.org/2000/svg"
 width="920.000000pt" height="433.000000pt" viewBox="0 0 920.000000 433.000000"
 preserveAspectRatio="xMidYMid meet">

<g transform="translate(0.000000,433.000000) scale(0.100000,-0.100000)"
fill="#000000" stroke="none">
<path d="M8647 4316 c-113 -41 -167 -119 -167 -240 0 -86 21 -138 75 -185 56
-48 100 -64 180 -65 61 0 78 4 125 30 193 108 164 397 -46 460 -58 17 -117 17
-167 0z"/>
<path d="M7570 4066 c-135 -24 -174 -39 -213 -85 -61 -72 -59 -41 -54 -907 3
-769 4 -792 26 -887 46 -207 129 -323 285 -396 106 -51 195 -64 384 -59 256 8
375 51 398 145 9 34 -35 263 -50 263 -6 0 -47 -12 -91 -26 -107 -35 -275 -44
-358 -20 -105 31 -156 107 -177 266 -5 41 -10 249 -10 463 l0 387 250 0 c226
0 254 2 288 19 78 40 102 92 102 226 l0 95 -320 0 -320 0 0 270 c0 149 -3 269
-7 269 -5 -1 -64 -11 -133 -23z"/>
<path d="M2792 3590 c-449 -63 -735 -463 -709 -990 7 -135 25 -225 66 -340 93
-254 258 -418 504 -502 88 -31 98 -32 257 -32 158 0 169 1 258 31 128 43 222
101 317 198 119 121 189 257 233 454 25 111 24 397 -2 506 -80 344 -292 578
-593 656 -87 22 -244 31 -331 19z m238 -366 c143 -42 242 -165 285 -354 24
-102 24 -317 0 -420 -36 -158 -120 -280 -230 -339 -46 -24 -60 -26 -170 -26
-112 0 -123 2 -174 28 -105 56 -182 164 -223 314 -27 103 -30 343 -5 445 59
238 195 365 393 367 39 1 94 -6 124 -15z"/>
<path d="M1215 3579 c-239 -35 -410 -160 -476 -350 -31 -90 -32 -257 0 -344
58 -162 180 -259 461 -368 221 -85 321 -142 352 -201 36 -66 27 -149 -21 -197
-46 -45 -125 -62 -286 -61 -103 0 -164 6 -232 21 -51 12 -109 21 -129 21 -97
0 -189 -63 -222 -153 -41 -111 -49 -100 94 -146 185 -61 276 -74 494 -74 152
0 203 4 285 22 187 40 340 137 398 253 74 147 76 337 7 484 -66 137 -207 229
-560 364 -149 56 -210 95 -238 150 -31 60 -27 138 9 176 71 76 194 97 419 72
58 -6 122 -8 142 -4 48 9 117 61 144 110 30 52 48 147 32 158 -21 13 -228 57
-318 68 -99 12 -270 11 -355 -1z"/>
<path d="M4571 3580 c-210 -30 -413 -142 -526 -292 -113 -148 -164 -309 -172
-533 -6 -178 5 -277 46 -406 40 -124 91 -208 176 -295 79 -80 145 -120 260
-160 75 -27 90 -28 245 -29 148 0 172 2 235 24 39 13 83 30 98 38 16 8 31 12
33 10 11 -10 -19 -143 -41 -186 -26 -53 -85 -110 -142 -140 -129 -65 -277 -71
-503 -19 -21 5 -52 -99 -53 -172 0 -112 41 -168 153 -206 45 -16 82 -19 210
-18 138 1 165 4 245 28 310 93 455 245 522 549 14 62 17 190 20 894 l4 821
-33 11 c-200 64 -599 106 -777 81z m279 -340 c41 -6 82 -13 92 -16 17 -5 18
-32 18 -473 l0 -467 -37 -21 c-124 -69 -314 -83 -424 -32 -157 74 -229 221
-229 472 0 294 127 494 342 536 59 12 149 12 238 1z"/>
<path d="M6201 3575 c-171 -31 -291 -95 -422 -225 -86 -86 -101 -106 -152
-210 -86 -174 -101 -250 -101 -495 0 -185 2 -208 27 -300 95 -353 333 -563
696 -616 116 -16 386 -6 515 20 100 21 224 57 239 71 7 6 -14 163 -29 211 -8
28 -54 68 -89 78 -23 6 -57 3 -121 -11 -123 -28 -381 -30 -473 -5 -138 38
-247 122 -297 231 -26 57 -57 184 -48 198 3 4 268 8 590 8 l584 0 0 159 c0
288 -50 473 -173 637 -153 202 -452 302 -746 249z m306 -360 c115 -52 187
-167 208 -332 l7 -53 -390 0 -389 0 8 43 c38 197 164 340 323 368 67 12 176 0
233 -26z"/>
<path d="M8530 2774 l0 -779 24 -50 c34 -74 73 -114 141 -146 53 -25 71 -29
153 -29 l92 0 -2 793 c-3 791 -3 792 -25 832 -12 22 -39 56 -60 76 -64 61 -96
73 -215 77 l-108 4 0 -778z"/>
<path d="M8480 1259 c-19 -17 -96 -68 -171 -115 -248 -154 -329 -253 -329
-403 0 -94 27 -158 92 -217 62 -57 121 -78 206 -72 114 8 191 62 278 196 117
179 130 196 173 224 50 31 102 36 154 14 41 -17 63 -42 81 -92 20 -53 20 -14
1 59 -42 163 -167 297 -372 401 -40 20 -74 36 -75 36 -2 -1 -19 -14 -38 -31z"/>
<path d="M3507 1246 c-63 -26 -134 -80 -167 -126 -140 -197 -127 -514 27 -650
124 -109 312 -87 435 50 l52 58 26 -51 c19 -39 36 -56 71 -74 42 -22 50 -23
94 -12 50 13 125 75 125 104 0 27 18 16 30 -19 12 -39 43 -70 84 -86 34 -13
80 -1 122 33 l27 21 -6 -105 c-8 -126 4 -233 31 -268 14 -20 30 -27 62 -29 40
-3 42 -2 36 20 -31 115 -32 493 -1 625 26 113 70 166 122 147 35 -12 52 -58
51 -139 -1 -97 -7 -109 -76 -155 -67 -45 -97 -88 -88 -125 13 -51 101 -37 163
26 22 22 50 61 63 87 15 33 39 59 81 89 l59 43 0 -53 c1 -107 57 -177 141
-177 42 0 55 5 89 36 21 19 42 45 46 57 7 22 8 22 15 -3 4 -14 7 -39 8 -57 1
-31 -3 -34 -89 -79 -174 -89 -240 -215 -179 -340 40 -84 152 -107 241 -48 69
44 117 181 118 329 l0 71 83 36 82 36 25 -23 c45 -40 92 -58 153 -58 79 1 139
33 197 105 50 63 43 66 69 -30 16 -56 45 -86 70 -73 27 15 47 74 82 235 17 77
38 156 46 174 30 64 49 32 58 -98 15 -212 47 -335 91 -346 55 -14 87 42 135
239 56 231 72 236 109 29 29 -164 79 -253 134 -236 51 15 102 86 126 174 l12
45 13 -45 c18 -67 30 -93 59 -127 61 -73 140 -61 201 30 l34 50 12 -47 c15
-60 52 -93 83 -73 33 21 54 75 86 217 36 159 62 223 87 218 25 -5 41 -44 63
-156 36 -182 67 -253 124 -280 56 -27 137 32 153 110 6 30 23 39 23 13 0 -23
35 -87 59 -109 26 -24 76 -25 98 -3 15 14 14 18 -14 41 -57 48 -75 112 -83
287 -6 171 -12 189 -61 189 l-29 0 0 -87 c-1 -172 -47 -334 -98 -341 -30 -5
-45 32 -71 183 -12 66 -31 148 -42 182 -42 128 -139 150 -207 47 -27 -41 -65
-155 -82 -246 -7 -38 -16 -68 -21 -68 -10 0 -13 45 -14 210 0 109 -1 115 -23
126 -13 6 -32 9 -43 7 -16 -5 -19 -15 -19 -77 -1 -211 -63 -392 -128 -372 -49
16 -82 146 -82 319 0 97 -14 127 -61 127 -16 0 -29 -3 -29 -8 0 -86 -48 -309
-80 -372 -43 -84 -64 -57 -99 129 -33 171 -67 241 -117 241 -54 0 -105 -105
-150 -312 -16 -74 -25 -90 -39 -69 -3 5 -10 67 -15 138 -5 70 -17 152 -26 182
-18 62 -61 111 -97 111 -60 0 -103 -70 -142 -232 -13 -55 -27 -103 -31 -107
-3 -3 -3 59 1 139 7 138 6 146 -14 164 -14 13 -28 16 -46 12 -24 -6 -25 -10
-25 -80 0 -90 -31 -216 -68 -276 -42 -68 -103 -110 -160 -110 -31 0 -56 7 -72
20 l-25 19 25 18 c105 73 160 158 160 245 0 95 -53 148 -149 148 -133 0 -226
-177 -178 -341 9 -29 15 -54 14 -55 -9 -7 -108 -54 -115 -54 -5 0 -14 75 -21
168 -7 92 -15 170 -18 175 -8 13 -50 7 -65 -10 -8 -10 -22 -58 -31 -106 -10
-53 -26 -106 -42 -133 -65 -111 -145 -32 -116 114 22 112 102 182 208 182 50
0 53 2 53 25 0 33 -26 45 -96 45 -87 0 -126 -24 -248 -155 -59 -63 -111 -115
-115 -115 -5 0 -11 30 -14 66 -8 83 -39 141 -92 171 -67 38 -126 26 -178 -37
-31 -36 -37 -37 -37 -7 0 37 -33 61 -67 50 l-28 -10 4 -115 c5 -172 -26 -290
-83 -316 -22 -10 -29 -9 -45 7 -23 23 -40 99 -48 214 l-6 87 -28 0 c-33 0 -52
-29 -63 -95 -27 -159 -112 -250 -171 -185 -23 26 -31 115 -15 166 33 105 113
168 211 167 33 -1 61 3 64 7 3 5 1 20 -4 34 -22 56 -146 54 -235 -5 -54 -36
-99 -96 -150 -202 -73 -151 -186 -230 -304 -212 -67 10 -133 77 -158 160 -26
86 -24 232 4 305 51 131 118 200 202 208 81 8 120 -36 120 -135 0 -18 4 -33 9
-33 5 0 16 -3 25 -6 10 -4 27 6 46 24 37 38 41 95 9 152 -47 84 -188 115 -302
66z m2142 -362 c12 -15 21 -39 21 -53 0 -40 -46 -126 -87 -162 -34 -29 -37
-30 -47 -13 -17 30 -13 164 7 201 31 58 73 68 106 27z m-432 -561 c-7 -93 -20
-139 -50 -184 -18 -27 -30 -35 -61 -37 -46 -4 -63 9 -72 55 -14 74 35 157 125
215 25 15 49 28 54 28 6 0 7 -31 4 -77z"/>
<path d="M6801 1197 c-60 -30 -43 -117 23 -117 18 0 39 7 47 16 20 24 16 84
-6 100 -23 17 -33 17 -64 1z"/>
<path d="M7694 1154 c-33 -49 9 -107 63 -88 62 21 48 114 -17 114 -21 0 -35
-8 -46 -26z"/>
<path d="M2920 917 c-54 -19 -60 -41 -60 -229 l0 -168 30 0 30 0 0 110 0 110
50 0 c47 0 50 2 50 25 0 23 -3 25 -50 25 -48 0 -50 1 -50 28 0 38 17 52 61 52
29 0 38 4 42 22 4 12 5 23 4 24 -13 9 -80 10 -107 1z"/>
<path d="M1558 883 l-38 -4 0 -180 0 -179 30 0 30 0 0 64 0 63 62 7 c103 12
138 40 138 110 0 47 -16 79 -48 98 -30 18 -116 28 -174 21z m144 -70 c23 -21
23 -58 0 -81 -19 -19 -96 -37 -113 -27 -5 4 -9 33 -9 66 l0 59 52 0 c34 0 58
-6 70 -17z"/>
<path d="M2278 872 l-28 -3 0 -133 c0 -192 12 -216 109 -216 54 0 63 6 55 36
-4 16 -12 19 -44 16 -36 -4 -41 -1 -50 24 -6 15 -10 55 -8 88 l3 61 48 0 c44
0 47 2 47 25 0 23 -3 25 -47 25 l-48 0 -5 40 c-5 37 -7 40 -32 37z"/>
<path d="M1850 791 c-16 -4 -25 -14 -25 -26 0 -17 8 -20 58 -23 51 -3 59 -6
67 -28 6 -14 10 -27 10 -30 0 -2 -24 -4 -54 -4 -72 0 -106 -26 -106 -81 0 -62
24 -79 114 -79 108 0 106 -2 106 94 0 107 -13 152 -50 171 -30 16 -77 18 -120
6z m94 -147 c10 -4 16 -18 16 -39 0 -29 -4 -34 -29 -40 -40 -9 -71 9 -71 41 0
32 45 53 84 38z"/>
<path d="M2090 791 c-25 -7 -25 -8 -28 -139 l-3 -132 30 0 30 0 3 113 3 112
42 -1 c34 -1 44 3 49 19 4 11 1 23 -7 28 -16 10 -83 10 -119 0z"/>
<path d="M2635 786 c-58 -26 -89 -110 -65 -180 35 -108 182 -118 235 -16 30
59 10 153 -39 185 -35 23 -95 28 -131 11z m96 -55 c19 -16 24 -29 24 -69 0
-62 -23 -92 -71 -92 -27 0 -36 6 -49 30 -21 41 -19 92 6 124 24 31 57 34 90 7z"/>
</g>
</svg>
